<svg xmlns="http://www.w3.org/2000/svg" width="38" height="16" viewBox="0 0 38 16">
    <g fill="#000" fill-rule="evenodd" opacity=".54">
        <path d="M15.927 7.963a7.93 7.93 0 0 0-.51-2.78c-.085 2.852-2.984 5.06-4.687 6.522h4.261a7.924 7.924 0 0 0 .936-3.742m-3.08-6.281A7.92 7.92 0 0 0 7.963 0a7.964 7.964 0 0 0 0 15.926 7.923 7.923 0 0 0 5.25-1.986H7.448l-.017-1.693c3.474-3.02 5.603-5.063 5.603-7.035 0-.733-.28-1.659-1.536-1.659-.995 0-1.955.577-1.78 2.986H7.693c-.507-2.793 1.012-5.01 3.91-5.01.449 0 .864.053 1.243.153M23.313 5.504h1.884C25.26 4.07 24.778 1.8 21.67 1.8c-2.286 0-3.944 1.369-3.944 4.218 0 .386.016 2.383.016 3.622 0 3.092 2.141 3.768 3.944 3.768 1.079 0 2.64-.242 3.365-1.03V7.451H21.51v1.787h1.578v2.174c-1.192.402-3.365.563-3.365-2.174v-3.22c0-1.916.885-2.576 1.867-2.576 1.015 0 1.723.515 1.723 2.06zm14.01 4.781c.081-4.41-4.974-2.946-4.926-5.409.016-.87.58-1.433 1.498-1.433.982 0 1.56.58 1.545 2.093h1.851c.049-1.368-.273-3.703-3.332-3.703-1.9 0-3.461.934-3.494 3.01-.08 4.235 5.007 2.85 4.927 5.41-.032 1.047-.79 1.513-1.642 1.513-.998 0-1.803-.58-1.642-2.318H30.24c-.21 2.303.805 3.945 3.494 3.945 2.27 0 3.557-1.256 3.59-3.108zM26.92 13.247h1.9V1.978h-1.9v11.27z"/>
    </g>
</svg>
