<svg xmlns="http://www.w3.org/2000/svg" width="78" height="16" viewBox="0 0 78 16">
    <g fill="#000" fill-rule="evenodd" opacity=".54">
        <path d="M4.642 3.765a1.807 1.807 0 1 1-3.608.211 1.807 1.807 0 0 1 3.608-.211M12.9 4.28a1.807 1.807 0 1 1-3.607.214A1.807 1.807 0 0 1 12.9 4.28M12.9 8.167a1.547 1.547 0 1 1-3.089.184 1.547 1.547 0 0 1 3.09-.184M9.288 9.988a1.29 1.29 0 1 1-2.576.151 1.29 1.29 0 1 1 2.576-.15M5.676 9.745a1.032 1.032 0 1 1-2.061.122 1.032 1.032 0 0 1 2.06-.122M9.287 1.943a2.065 2.065 0 1 1-4.124.242 2.065 2.065 0 0 1 4.124-.242M6.191 14.118a1.29 1.29 0 1 1-2.575.151 1.29 1.29 0 0 1 2.575-.151M8.772 14.908a1.032 1.032 0 1 1-2.06.12 1.032 1.032 0 0 1 2.06-.12M11.302 14.475a.775.775 0 1 1-1.444-.564.775.775 0 0 1 1.444.564M12.352 13.09a.516.516 0 1 1-.962-.373.516.516 0 0 1 .962.373M4.126 11.78a1.548 1.548 0 1 1-3.091.182 1.548 1.548 0 0 1 3.091-.182M3.357 8.072c.054.882-.652 1.639-1.578 1.691C.853 9.815.058 9.141.003 8.26c-.055-.882.652-1.64 1.578-1.692.926-.051 1.722.622 1.776 1.505M54.71 8.75c.006-2.306 1.846-4.117 4.171-4.105 2.237.013 4.08 1.867 4.087 4.112.007 2.31-1.856 4.154-4.188 4.146-2.27-.01-4.077-1.852-4.07-4.153m4.116 2.39a2.38 2.38 0 0 0 2.373-2.383c-.006-1.278-1.084-2.347-2.366-2.348a2.346 2.346 0 0 0-2.356 2.342c-.004 1.34 1.02 2.383 2.349 2.39M45.935 6.404c-.777 0-.097.004-.518.004-.86 0-1.245.367-1.245 1.092-.006 1.53-.001 3.392-.001 4.887h-1.842c0-1.828-.006-3.364-.006-5.033-.001-1.81 1.495-2.709 3.048-2.702.22 0 .2-.007.564-.007v1.76zM70.489 4.651h-.213v-.006c-.114 0-.228 0-.342.002l-.34-.002v.006h-.212c-1.428-.006-2.802.866-2.8 2.625 0 1.62-.003 3.241 0 4.86 0 .084.026.168.039.251h1.658v-.51c0-1.485-.005-2.973.002-4.46 0-.704.354-1.06 1.143-1.06.303 0 .218-.001.511-.003.294.002.209.003.51.003.79 0 1.144.356 1.144 1.06.007 1.487.003 2.975.003 4.46v.51h1.658c.013-.083.04-.167.04-.25V7.276c0-1.759-1.374-2.63-2.801-2.625M50.107 4.645c-2.21-.012-3.979 1.543-4.155 3.576h-.016v6.23h1.689V11.74c.668.463 1.487.739 2.381.742 2.332.008 4.196-1.742 4.188-3.935-.006-2.13-1.85-3.89-4.087-3.902m-.055 6.164c-1.329-.005-2.353-.995-2.349-2.267.006-1.235 1.051-2.223 2.356-2.222 1.283 0 2.36 1.014 2.367 2.227.007 1.242-1.07 2.268-2.374 2.262M77.103 10.642c-.772 0-1.118-.363-1.118-1.082-.002-.642-.004-1.819-.004-3.075h1.396v-1.74h-1.394v-2.68H74.33c0 1.81-.007 5.988-.008 7.64 0 1.793 1.343 2.682 2.738 2.676.197-.002.548.006.874.006v-1.742c-.696.001-.456-.003-.832-.003M25.34 9.366h.936c.028-.2.047-.401.047-.61-.007-2.244-1.85-4.098-4.087-4.11-2.324-.015-4.166 1.798-4.171 4.104-.006 2.302 1.8 4.144 4.07 4.153a4.145 4.145 0 0 0 3.892-2.598H23.98a2.364 2.364 0 0 1-1.801.836 2.319 2.319 0 0 1-2.27-1.774l5.43-.001zm-3.153-2.957c.983 0 1.843.627 2.196 1.496h-4.389a2.343 2.343 0 0 1 2.193-1.496zM40.822 9.366h.936c.029-.2.048-.401.048-.61-.007-2.244-1.85-4.098-4.087-4.11-2.324-.015-4.165 1.798-4.17 4.104-.007 2.302 1.799 4.144 4.07 4.153a4.144 4.144 0 0 0 3.89-2.598h-2.043a2.366 2.366 0 0 1-1.801.836 2.319 2.319 0 0 1-2.271-1.774l5.428-.001zm-3.15-2.957c.982 0 1.841.627 2.194 1.496h-4.389a2.346 2.346 0 0 1 2.194-1.496zM30.903 6.464l-1.228 2.78c-.125-.277-.212-.461-.295-.65-.405-.92-1.207-2.713-1.773-3.949h-1.784l-.017.002c.065.167.107.288.16.407.986 2.247 1.978 4.49 2.954 6.742.152.35.35.591.748.591.395 0 .605-.23.756-.58.992-2.278 1.996-4.548 2.994-6.823.045-.103.084-.185.13-.338H31.73c-.331.72-.691 1.514-.826 1.818M65.548 3.097a1.033 1.033 0 1 1-2.065-.001 1.033 1.033 0 0 1 2.065 0M63.484 12.387h1.548V4.645h-1.548z"/>
    </g>
</svg>
