<svg id="Layer_1" data-name="Layer 1" xmlns="http://www.w3.org/2000/svg" viewBox="0 0 32 32">
    <defs>
        <style>
            .cls-1{fill:#7c00dd;opacity:0.68;}.cls-2{fill:none;stroke:#fff;stroke-miterlimit:10;stroke-width:1.5px;}.cls-3{fill:#fff;}
        </style>
    </defs>
    <title>flpin32</title>
    <circle class="cls-1" cx="16" cy="16" r="15"/>
    <circle class="cls-2" cx="16" cy="16" r="15"/>
    <path class="cls-3"
          d="M19.65,10.48v0a7,7,0,0,1-1.37,3.93c1.42-.73,2.84-1.4,2.84-1.4a31.24,31.24,0,0,1-3.68,2.44q-.32.35-.7.7a7.46,7.46,0,0,0,5.5-.34c2.64-1.52,3.13-5.25,3.13-5.25s-3.14-1.29-5.72-.11"/>
    <path class="cls-3"
          d="M22.61,16.4l0,0a6.51,6.51,0,0,1-3.27.8c-.29,0-.57,0-.84,0,1.35.87,2.65,1.77,2.65,1.77a31.22,31.22,0,0,1-4-2l-.6-.15-.34-.09a7.46,7.46,0,0,0,3,4.59c2.64,1.52,6.11.09,6.11.09s-.45-3.37-2.77-5"/>
    <path class="cls-3"
          d="M18.92,21.91a6.92,6.92,0,0,1-2.72-3.18c-.08,1.6-.21,3.18-.21,3.18a31.2,31.2,0,0,1-.27-4.42q-.09-.29-.17-.58l-.09-.35A7.46,7.46,0,0,0,13,21.49c0,3,3,5.34,3,5.34s2.69-2.07,3-4.9l0,0"/>
    <path class="cls-3"
          d="M12.34,21.49a6.93,6.93,0,0,1,1.39-3.94c-1.43.73-2.86,1.41-2.86,1.41a31.29,31.29,0,0,1,3.69-2.45l.42-.44.26-.25a7.46,7.46,0,0,0-5.49.35c-2.64,1.52-3.13,5.25-3.13,5.25s3.14,1.29,5.72.11v0m.73-11.4a6.92,6.92,0,0,1,2.72,3.18c.08-1.6.21-3.18.21-3.18a31.25,31.25,0,0,1,.27,4.42c.07.21.12.4.17.58l.09.35A7.46,7.46,0,0,0,19,10.51c0-3-3-5.34-3-5.34s-2.69,2.07-3,4.9l0,0"/>
    <path class="cls-3"
          d="M9.39,15.59l0,0a6.93,6.93,0,0,1,4.11-.76C12.18,13.94,10.88,13,10.88,13a31.22,31.22,0,0,1,4,2l.59.15.35.1a7.47,7.47,0,0,0-3-4.58c-2.64-1.52-6.11-.09-6.11-.09s.45,3.37,2.77,5"/>
</svg>