<svg id="Layer_1" data-name="Layer 1" xmlns="http://www.w3.org/2000/svg" viewBox="0 0 20 20">
    <defs>
        <style>
            .cls-1{fill:#7c00dd;opacity:0.68;}.cls-2{fill:none;stroke:#fff;stroke-miterlimit:10;stroke-width:1.5px;}.cls-3{fill:#fff;}
        </style>
    </defs>
    <title>flpin20</title>
    <circle class="cls-1" cx="10" cy="10" r="9"/>
    <circle class="cls-2" cx="10" cy="10" r="9"/>
    <path class="cls-3"
          d="M12.19,6.69v0a4.17,4.17,0,0,1-.82,2.36c.85-.44,1.7-.84,1.7-.84a18.75,18.75,0,0,1-2.21,1.46q-.19.21-.42.42a4.48,4.48,0,0,0,3.3-.21,4.7,4.7,0,0,0,1.88-3.15,4.88,4.88,0,0,0-3.43-.06"/>
    <path class="cls-3"
          d="M14,10.24h0a3.91,3.91,0,0,1-2,.48l-.5,0c.81.52,1.59,1.06,1.59,1.06a18.73,18.73,0,0,1-2.38-1.19l-.36-.09-.2-.06A4.48,4.48,0,0,0,12,13.19a4.7,4.7,0,0,0,3.67.05,4.88,4.88,0,0,0-1.66-3"/>
    <path class="cls-3"
          d="M11.75,13.55a4.15,4.15,0,0,1-1.63-1.91c-.05,1-.12,1.91-.12,1.91a18.72,18.72,0,0,1-.16-2.65q-.05-.17-.1-.35l-.05-.21a4.48,4.48,0,0,0-1.47,3A4.7,4.7,0,0,0,10,16.49a4.88,4.88,0,0,0,1.77-2.94h0"/>
    <path class="cls-3"
          d="M7.81,13.29a4.16,4.16,0,0,1,.84-2.37c-.86.44-1.71.85-1.71.85A18.77,18.77,0,0,1,9.15,10.3L9.4,10l.15-.15a4.47,4.47,0,0,0-3.3.21,4.7,4.7,0,0,0-1.88,3.15,4.88,4.88,0,0,0,3.43.06v0m.44-6.84A4.15,4.15,0,0,1,9.88,8.36c0-1,.12-1.91.12-1.91a18.75,18.75,0,0,1,.16,2.65c0,.13.07.24.1.35l.05.21a4.48,4.48,0,0,0,1.47-3A4.7,4.7,0,0,0,10,3.51,4.88,4.88,0,0,0,8.23,6.45h0"/>
    <path class="cls-3"
          d="M6,9.76h0a4.16,4.16,0,0,1,2.47-.46c-.81-.52-1.59-1.06-1.59-1.06A18.73,18.73,0,0,1,9.31,9.41l.35.09.21.06A4.48,4.48,0,0,0,8,6.81a4.7,4.7,0,0,0-3.67-.05A4.88,4.88,0,0,0,6,9.76"/>
</svg>