<svg xmlns="http://www.w3.org/2000/svg" xmlns:xlink="http://www.w3.org/1999/xlink" width="226" height="226" viewBox="0 0 226 226">
    <defs>
        <path id="a" d="M0 0h226v226H0z"/>
    </defs>
    <g fill="none" fill-rule="evenodd">
        <mask id="b" fill="#fff">
            <use xlink:href="#a"/>
        </mask>
        <use fill="#FFF" fill-rule="nonzero" xlink:href="#a"/>
        <g fill="#FF64A4" fill-opacity=".06" mask="url(#b)">
            <path d="M234.577-5.639c.001.07.007.136.007.205 0 4.599-1.093 14.753-9.23 26.356 9.57-4.868 19.054-9.382 19.054-9.382s-12.944 10.042-24.701 16.337A76.749 76.749 0 0 1 215 32.531c7.722 2.15 23.944 5.189 36.952-2.304C269.674 20.02 273-4.93 273-4.93s-21.107-8.665-38.423-.709"/>
            <path d="M254.564 34c-.061.036-.12.075-.18.11-7 3.996-14.716 5.3-21.802 5.3-1.918 0-3.787-.1-5.587-.263a904.226 904.226 0 0 1 17.647 11.647s-15.154-6.093-26.415-13.01a77.147 77.147 0 0 1-3.967-.975l-2.26-.624c1.99 7.632 7.425 22.85 20.294 30.195 17.578 10.033 40.706.599 40.706.599S269.997 44.795 254.564 34"/>
            <path d="M230.81 69.923c-9.005-5.03-14.738-13.191-18.333-20.737a867 867 0 0 1-1.398 20.74s-2.268-15.876-1.836-28.855a72.45 72.45 0 0 1-1.127-3.794L207.509 35C201.746 40.47 191 52.618 191 67.174 191 87.054 211.079 102 211.079 102S229.237 88.463 231 70.024c-.062-.034-.127-.065-.19-.1"/>
            <path d="M187.451 66.429c0-10.327 4.426-19.45 9.364-26.417-9.62 4.892-19.198 9.446-19.198 9.446s13.031-10.1 24.827-16.392a74.781 74.781 0 0 1 2.825-2.92L207 28.455c-7.753-2.149-23.946-5.155-36.932 2.317C152.328 40.98 149 65.924 149 65.924s21.127 8.671 38.458.719c-.001-.072-.007-.142-.007-.214M191.19-8.924c9.006 5.03 14.738 13.192 18.333 20.737a866.613 866.613 0 0 1 1.398-20.74s2.268 15.876 1.836 28.856a72.34 72.34 0 0 1 1.127 3.792L214.49 26C220.254 20.53 231 8.38 231-6.174 231-26.056 210.921-41 210.921-41S192.761-27.464 191-9.023c.063.034.127.063.19.099"/>
            <path d="M167.436 27c.061-.036.119-.075.181-.11 8.892-5.075 18.938-5.804 27.385-5.038-8.98-5.76-17.644-11.646-17.644-11.646s15.151 6.092 26.413 13.007a74.43 74.43 0 0 1 3.914.963l2.315.636c-1.99-7.633-7.426-22.848-20.294-30.193C172.127-15.413 149-5.979 149-5.979S152.002 16.205 167.436 27"/>
        </g>
        <g fill="#FF64A4" fill-opacity=".06" mask="url(#b)">
            <path d="M102.789 48.68c0 .035.003.068.003.103 0 2.3-.547 7.376-4.615 13.178 4.785-2.434 9.527-4.691 9.527-4.691s-6.472 5.02-12.35 8.169A38.374 38.374 0 0 1 93 67.765c3.861 1.075 11.972 2.595 18.476-1.151C120.337 61.509 122 49.034 122 49.034s-10.553-4.331-19.211-.353M112.631 69c-.031.018-.06.039-.092.056-3.557 2.052-7.478 2.722-11.08 2.722-.974 0-1.924-.052-2.838-.135 4.563 2.957 8.968 5.981 8.968 5.981s-7.701-3.129-13.425-6.68a38.87 38.87 0 0 1-2.015-.502L91 70.122c1.012 3.92 3.774 11.734 10.314 15.506 8.933 5.152 20.686.307 20.686.307S120.474 74.543 112.631 69"/>
            <path d="M100.905 86.722c-4.503-2.552-7.369-6.694-9.167-10.523-.281 5.313-.699 10.525-.699 10.525s-1.133-8.057-.917-14.643a37.182 37.182 0 0 1-.564-1.926L89.254 69C86.373 71.776 81 77.94 81 85.327 81 95.416 91.04 103 91.04 103s9.078-6.87 9.96-16.226l-.095-.052"/>
            <path d="M79.226 85.214c0-5.163 2.212-9.725 4.682-13.208-4.811 2.446-9.6 4.723-9.6 4.723s6.516-5.05 12.414-8.196a37.39 37.39 0 0 1 1.413-1.46l.865-.846c-3.876-1.075-11.973-2.578-18.466 1.159C61.664 72.49 60 84.962 60 84.962s10.563 4.336 19.229.36c0-.037-.003-.072-.003-.108M81.095 47.277c4.503 2.553 7.369 6.695 9.167 10.524.281-5.314.699-10.525.699-10.525s1.133 8.056.917 14.643c.223.692.41 1.34.564 1.924L92.746 65C95.627 62.224 101 56.059 101 48.673 101 38.583 90.96 31 90.96 31S81.88 37.87 81 47.227c.032.017.064.032.095.05"/>
            <path d="M69.369 65c.031-.018.06-.039.092-.057 4.519-2.606 9.625-2.98 13.917-2.587-4.563-2.957-8.967-5.98-8.967-5.98s7.7 3.128 13.424 6.68c.725.16 1.393.328 1.988.494l1.177.327c-1.012-3.92-3.774-11.734-10.313-15.505C71.753 43.22 60 48.065 60 48.065S61.526 59.457 69.369 65"/>
        </g>
        <g fill="#FF64A4" fill-opacity=".06" mask="url(#b)">
            <path d="M172.076 112.07l.002.065c0 1.463-.34 4.694-2.865 8.386 2.97-1.55 5.914-2.986 5.914-2.986s-4.018 3.196-7.666 5.199c-.444.491-.93.985-1.461 1.48 2.396.684 7.43 1.651 11.468-.733 5.5-3.248 6.532-11.186 6.532-11.186s-6.55-2.757-11.924-.225M178.955 125l-.059.036c-2.295 1.296-4.824 1.718-7.148 1.719-.629 0-1.241-.033-1.832-.086a296.765 296.765 0 0 1 5.786 3.778s-4.968-1.976-8.66-4.22c-.475-.102-.912-.21-1.301-.316l-.741-.202c.653 2.475 2.435 7.41 6.654 9.793 5.763 3.254 13.346.194 13.346.194s-.985-7.195-6.045-10.696"/>
            <path d="M171.938 135.946c-2.926-1.576-4.79-4.135-5.958-6.5-.183 3.282-.454 6.501-.454 6.501s-.737-4.976-.597-9.044a22.1 22.1 0 0 1-.366-1.19l-.198-.713c-1.873 1.715-5.365 5.522-5.365 10.084 0 6.232 6.526 10.916 6.526 10.916s5.901-4.243 6.474-10.022c-.02-.011-.041-.02-.062-.032"/>
            <path d="M157.933 134.864c0-3.286 1.374-6.189 2.906-8.406-2.986 1.557-5.958 3.006-5.958 3.006s4.044-3.214 7.705-5.216c.309-.345.605-.656.877-.929l.537-.538c-2.406-.684-7.431-1.64-11.462.737-5.505 3.248-6.538 11.185-6.538 11.185s6.557 2.76 11.935.229l-.002-.068M159.062 111.054c2.927 1.576 4.79 4.134 5.958 6.5.183-3.283.454-6.501.454-6.501s.737 4.976.597 9.044c.145.427.266.828.366 1.189l.198.714c1.873-1.715 5.365-5.522 5.365-10.084 0-6.232-6.526-10.916-6.526-10.916s-5.902 4.243-6.474 10.022c.02.011.041.02.062.032"/>
            <path d="M151.044 122l.06-.036c2.915-1.646 6.21-1.882 8.978-1.634-2.943-1.868-5.784-3.777-5.784-3.777s4.967 1.976 8.66 4.219c.468.1.9.207 1.283.312l.759.206c-.653-2.475-2.435-7.41-6.654-9.792-5.763-3.254-13.346-.194-13.346-.194s.984 7.195 6.044 10.696"/>
        </g>
    </g>
</svg>
