<svg xmlns="http://www.w3.org/2000/svg" width="487" height="215" viewBox="0 0 487 215">
    <g fill="none" fill-rule="evenodd">
        <g fill="#000">
            <path fill-opacity=".12" fill-rule="nonzero" d="M34 181h434v1H34z"/>
            <path fill-opacity=".54" d="M6.563 182.349H4.181v-.738h2.382v.738zm1.302-.913l.361-3.545h3.643v.835H8.993l-.215 1.938a2.294 2.294 0 0 1 1.186-.308c.648 0 1.162.214 1.543.643.381.428.572 1.006.572 1.735 0 .733-.198 1.31-.594 1.731-.395.422-.948.633-1.657.633-.629 0-1.141-.174-1.539-.523-.397-.348-.623-.83-.678-1.445h.854c.056.407.2.714.435.92.234.207.543.31.928.31.42 0 .749-.143.988-.43.24-.286.36-.681.36-1.186 0-.475-.13-.857-.389-1.145-.259-.288-.603-.432-1.033-.432-.394 0-.703.086-.927.259l-.24.195-.722-.185zm9.758.532c0 1.058-.18 1.844-.542 2.358-.361.514-.926.772-1.694.772-.759 0-1.32-.252-1.685-.755s-.553-1.254-.566-2.253v-1.206c0-1.045.18-1.821.542-2.33.36-.507.927-.761 1.699-.761.765 0 1.328.245 1.69.735.36.49.546 1.246.556 2.268v1.172zm-.903-1.236c0-.765-.108-1.322-.323-1.672-.215-.35-.555-.525-1.02-.525-.462 0-.8.174-1.011.523-.212.348-.32.883-.327 1.606v1.445c0 .769.111 1.336.334 1.702.223.366.561.55 1.014.55.445 0 .777-.173.993-.518.217-.345.33-.889.34-1.631v-1.48zm2.082-1.474c0-.427.136-.778.408-1.055.271-.277.62-.415 1.047-.415.433 0 .784.14 1.052.418.269.278.403.638.403 1.081v.347c0 .43-.136.78-.408 1.052-.271.272-.617.408-1.037.408-.423 0-.773-.136-1.05-.408-.277-.272-.415-.634-.415-1.086v-.342zm.674.376a.92.92 0 0 0 .215.627.726.726 0 0 0 .576.247c.23 0 .417-.08.559-.24.141-.159.212-.377.212-.654v-.356a.943.943 0 0 0-.21-.63.708.708 0 0 0-.571-.25.708.708 0 0 0-.571.25c-.14.166-.21.382-.21.65v.356zm2.788 3.623c0-.427.136-.777.408-1.052.271-.275.62-.413 1.047-.413.426 0 .776.137 1.05.41.273.274.41.637.41 1.089v.347c0 .426-.136.777-.408 1.052-.272.275-.62.413-1.042.413-.423 0-.773-.136-1.05-.408-.277-.272-.415-.634-.415-1.087v-.351zm.674.38c0 .258.071.469.215.633a.726.726 0 0 0 .576.247c.234 0 .421-.081.561-.242.14-.161.21-.38.21-.657v-.361c0-.257-.07-.467-.212-.63a.716.716 0 0 0-.57-.244c-.23 0-.418.08-.563.242-.145.16-.217.378-.217.651v.362zm-2.466.826l-.513-.322 3.472-5.557.513.322-3.472 5.557z"/>
        </g>
        <g fill="#000">
            <path fill-opacity=".12" fill-rule="nonzero" d="M34 146h434v1H34z"/>
            <path fill-opacity=".54" d="M8.006 146.436l.361-3.545h3.643v.835H9.134l-.215 1.938a2.294 2.294 0 0 1 1.186-.308c.648 0 1.163.214 1.543.643.381.428.572 1.006.572 1.735 0 .733-.198 1.31-.594 1.731-.395.422-.948.633-1.657.633-.629 0-1.141-.174-1.538-.523-.397-.348-.624-.83-.679-1.445h.854c.056.407.2.714.435.92.234.207.544.31.928.31.42 0 .75-.143.989-.43.239-.286.358-.681.358-1.186 0-.475-.129-.857-.388-1.145-.259-.288-.603-.432-1.032-.432-.394 0-.704.086-.928.259l-.24.195-.722-.185zm9.758.532c0 1.058-.18 1.844-.542 2.358-.361.514-.926.772-1.694.772-.759 0-1.32-.252-1.685-.755-.364-.503-.553-1.254-.566-2.253v-1.206c0-1.045.18-1.821.542-2.33.361-.507.927-.761 1.699-.761.765 0 1.328.245 1.69.735.36.49.546 1.246.556 2.268v1.172zm-.903-1.236c0-.765-.108-1.322-.323-1.672-.214-.35-.555-.525-1.02-.525-.462 0-.8.174-1.01.523-.212.348-.321.883-.328 1.606v1.445c0 .769.112 1.336.335 1.702.223.366.56.55 1.013.55.446 0 .777-.173.993-.518.217-.345.33-.889.34-1.631v-1.48zm2.082-1.474c0-.427.136-.778.408-1.055.272-.277.62-.415 1.047-.415.433 0 .784.14 1.052.418.269.278.403.638.403 1.081v.347c0 .43-.136.78-.407 1.052-.272.272-.618.408-1.038.408-.423 0-.773-.136-1.05-.408-.276-.272-.415-.634-.415-1.086v-.342zm.674.376a.92.92 0 0 0 .215.627.726.726 0 0 0 .576.247c.231 0 .417-.08.56-.24.14-.159.211-.377.211-.654v-.356a.943.943 0 0 0-.21-.63.708.708 0 0 0-.57-.25.708.708 0 0 0-.572.25c-.14.166-.21.382-.21.65v.356zm2.788 3.623c0-.427.136-.777.408-1.052.272-.275.62-.413 1.047-.413.427 0 .777.137 1.05.41.273.274.41.637.41 1.089v.347c0 .426-.136.777-.408 1.052-.271.275-.619.413-1.042.413-.423 0-.773-.136-1.05-.408-.277-.272-.415-.634-.415-1.087v-.351zm.674.38c0 .258.072.469.215.633a.726.726 0 0 0 .576.247c.234 0 .421-.081.561-.242.14-.161.21-.38.21-.657v-.361c0-.257-.07-.467-.212-.63a.716.716 0 0 0-.569-.244c-.231 0-.419.08-.564.242-.145.16-.217.378-.217.651v.362zm-2.466.826l-.513-.322 3.472-5.557.513.322-3.472 5.557z"/>
        </g>
        <g fill="#000">
            <path fill-opacity=".12" fill-rule="nonzero" d="M34 111h434v1H34z"/>
            <path fill-opacity=".54" d="M3.56 115H2.65v-6.02l-1.82.668v-.82l2.587-.972h.142V115zm3.161-3.564l.361-3.545h3.643v.835H7.849l-.215 1.938a2.294 2.294 0 0 1 1.187-.308c.647 0 1.162.214 1.543.643.38.428.571 1.006.571 1.735 0 .733-.198 1.31-.593 1.731-.396.422-.948.633-1.658.633-.628 0-1.141-.174-1.538-.523-.397-.348-.623-.83-.679-1.445h.855c.055.407.2.714.434.92.235.207.544.31.928.31.42 0 .75-.143.989-.43.239-.286.359-.681.359-1.186 0-.475-.13-.857-.389-1.145-.258-.288-.603-.432-1.032-.432-.394 0-.703.086-.928.259l-.24.195-.722-.185zm9.758.532c0 1.058-.18 1.844-.542 2.358-.361.514-.926.772-1.694.772-.758 0-1.32-.252-1.685-.755-.364-.503-.553-1.254-.566-2.253v-1.206c0-1.045.18-1.821.542-2.33.361-.507.928-.761 1.7-.761.764 0 1.327.245 1.689.735.361.49.547 1.246.556 2.268v1.172zm-.903-1.236c0-.765-.107-1.322-.322-1.672-.215-.35-.555-.525-1.02-.525-.463 0-.8.174-1.012.523-.211.348-.32.883-.327 1.606v1.445c0 .769.112 1.336.335 1.702.223.366.56.55 1.013.55.446 0 .777-.173.994-.518.216-.345.33-.889.339-1.631v-1.48zm2.082-1.474c0-.427.136-.778.408-1.055.272-.277.621-.415 1.047-.415.433 0 .784.14 1.053.418.268.278.403.638.403 1.081v.347c0 .43-.136.78-.408 1.052-.272.272-.618.408-1.038.408-.423 0-.773-.136-1.05-.408-.276-.272-.415-.634-.415-1.086v-.342zm.674.376a.92.92 0 0 0 .215.627.726.726 0 0 0 .576.247c.231 0 .418-.08.56-.24.14-.159.212-.377.212-.654v-.356a.943.943 0 0 0-.21-.63.708.708 0 0 0-.572-.25.708.708 0 0 0-.57.25c-.14.166-.21.382-.21.65v.356zm2.788 3.623c0-.427.136-.777.408-1.052.272-.275.621-.413 1.047-.413.427 0 .777.137 1.05.41.274.274.41.637.41 1.089v.347c0 .426-.136.777-.407 1.052-.272.275-.62.413-1.043.413-.423 0-.773-.136-1.05-.408-.276-.272-.415-.634-.415-1.087v-.351zm.674.38c0 .258.072.469.215.633a.726.726 0 0 0 .576.247c.235 0 .422-.081.562-.242.14-.161.21-.38.21-.657v-.361c0-.257-.071-.467-.213-.63a.716.716 0 0 0-.569-.244c-.23 0-.419.08-.564.242-.144.16-.217.378-.217.651v.362zm-2.466.826l-.512-.322 3.471-5.557.513.322-3.472 5.557z"/>
        </g>
        <g fill="#000">
            <path fill-opacity=".12" fill-rule="nonzero" d="M34 76h434v1H34z"/>
            <path fill-opacity=".54" d="M5.249 80H.591v-.65l2.46-2.734c.365-.413.617-.75.755-1.008.138-.259.208-.527.208-.803 0-.371-.113-.676-.337-.913-.225-.238-.524-.357-.899-.357-.449 0-.798.128-1.047.383-.25.256-.374.612-.374 1.067H.454c0-.654.21-1.183.632-1.587.422-.403.986-.605 1.692-.605.661 0 1.184.173 1.568.52.384.347.576.808.576 1.384 0 .7-.446 1.533-1.338 2.5L1.68 79.263h3.569V80zm1.472-3.564l.361-3.545h3.643v.835H7.849l-.215 1.938a2.294 2.294 0 0 1 1.187-.308c.647 0 1.162.214 1.543.643.38.428.571 1.006.571 1.735 0 .733-.198 1.31-.593 1.731-.396.422-.948.633-1.658.633-.628 0-1.141-.174-1.538-.523-.397-.348-.623-.83-.679-1.445h.855c.055.407.2.714.434.92.235.207.544.31.928.31.42 0 .75-.143.989-.43.239-.286.359-.681.359-1.186 0-.475-.13-.857-.389-1.145-.258-.288-.603-.432-1.032-.432-.394 0-.703.086-.928.259l-.24.195-.722-.185zm9.758.532c0 1.058-.18 1.844-.542 2.358-.361.514-.926.772-1.694.772-.758 0-1.32-.252-1.685-.755-.364-.503-.553-1.254-.566-2.253v-1.206c0-1.045.18-1.821.542-2.33.361-.507.928-.761 1.7-.761.764 0 1.327.245 1.689.735.361.49.547 1.246.556 2.268v1.172zm-.903-1.236c0-.765-.107-1.322-.322-1.672-.215-.35-.555-.525-1.02-.525-.463 0-.8.174-1.012.523-.211.348-.32.883-.327 1.606v1.445c0 .769.112 1.336.335 1.702.223.366.56.55 1.013.55.446 0 .777-.173.994-.518.216-.345.33-.889.339-1.631v-1.48zm2.082-1.474c0-.427.136-.778.408-1.055.272-.277.621-.415 1.047-.415.433 0 .784.14 1.053.418.268.278.403.638.403 1.081v.347c0 .43-.136.78-.408 1.052-.272.272-.618.408-1.038.408-.423 0-.773-.136-1.05-.408-.276-.272-.415-.634-.415-1.086v-.342zm.674.376a.92.92 0 0 0 .215.627.726.726 0 0 0 .576.247c.231 0 .418-.08.56-.24.14-.159.212-.377.212-.654v-.356a.943.943 0 0 0-.21-.63.708.708 0 0 0-.572-.25.708.708 0 0 0-.57.25c-.14.166-.21.382-.21.65v.356zm2.788 3.623c0-.427.136-.777.408-1.052.272-.275.621-.413 1.047-.413.427 0 .777.137 1.05.41.274.274.41.637.41 1.089v.347c0 .426-.136.777-.407 1.052-.272.275-.62.413-1.043.413-.423 0-.773-.136-1.05-.408-.276-.272-.415-.634-.415-1.087v-.351zm.674.38c0 .258.072.469.215.633a.726.726 0 0 0 .576.247c.235 0 .422-.081.562-.242.14-.161.21-.38.21-.657v-.361c0-.257-.071-.467-.213-.63a.716.716 0 0 0-.569-.244c-.23 0-.419.08-.564.242-.144.16-.217.378-.217.651v.362zm-2.466.826l-.512-.322 3.471-5.557.513.322-3.472 5.557z"/>
        </g>
        <g fill="#000">
            <path fill-opacity=".12" fill-rule="nonzero" d="M34 41h434v1H34z"/>
            <path fill-opacity=".54" d="M1.904 41.006h.679c.426-.007.762-.119 1.006-.337.244-.218.366-.513.366-.884 0-.833-.415-1.25-1.245-1.25-.39 0-.702.112-.935.335-.233.223-.35.518-.35.886H.523c0-.563.206-1.031.618-1.404.412-.373.935-.559 1.57-.559.67 0 1.196.177 1.577.532.381.355.571.848.571 1.48 0 .309-.1.608-.3.898-.2.29-.473.506-.818.65.39.123.693.328.906.615.213.286.32.636.32 1.05 0 .638-.209 1.144-.625 1.518-.417.374-.959.562-1.626.562-.667 0-1.21-.181-1.629-.542-.418-.362-.627-.839-.627-1.431h.908c0 .374.122.674.366.898.245.225.572.337.982.337.436 0 .77-.114 1-.341.232-.228.348-.555.348-.982 0-.413-.127-.73-.381-.952-.254-.221-.62-.335-1.099-.342h-.679v-.737zm4.817.43l.361-3.545h3.643v.835H7.849l-.215 1.938a2.294 2.294 0 0 1 1.187-.308c.647 0 1.162.214 1.543.643.38.428.571 1.006.571 1.735 0 .733-.198 1.31-.593 1.731-.396.422-.948.633-1.658.633-.628 0-1.141-.174-1.538-.523-.397-.348-.623-.83-.679-1.445h.855c.055.407.2.714.434.92.235.207.544.31.928.31.42 0 .75-.143.989-.43.239-.286.359-.681.359-1.186 0-.475-.13-.857-.389-1.145-.258-.288-.603-.432-1.032-.432-.394 0-.703.086-.928.259l-.24.195-.722-.185zm9.758.532c0 1.058-.18 1.844-.542 2.358-.361.514-.926.772-1.694.772-.758 0-1.32-.252-1.685-.755-.364-.503-.553-1.254-.566-2.253v-1.206c0-1.045.18-1.821.542-2.33.361-.507.928-.761 1.7-.761.764 0 1.327.245 1.689.735.361.49.547 1.246.556 2.268v1.172zm-.903-1.236c0-.765-.107-1.322-.322-1.672-.215-.35-.555-.525-1.02-.525-.463 0-.8.174-1.012.523-.211.348-.32.883-.327 1.606v1.445c0 .769.112 1.336.335 1.702.223.366.56.55 1.013.55.446 0 .777-.173.994-.518.216-.345.33-.889.339-1.631v-1.48zm2.082-1.474c0-.427.136-.778.408-1.055.272-.277.621-.415 1.047-.415.433 0 .784.14 1.053.418.268.278.403.638.403 1.081v.347c0 .43-.136.78-.408 1.052-.272.272-.618.408-1.038.408-.423 0-.773-.136-1.05-.408-.276-.272-.415-.634-.415-1.086v-.342zm.674.376a.92.92 0 0 0 .215.627.726.726 0 0 0 .576.247c.231 0 .418-.08.56-.24.14-.159.212-.377.212-.654v-.356a.943.943 0 0 0-.21-.63.708.708 0 0 0-.572-.25.708.708 0 0 0-.57.25c-.14.166-.21.382-.21.65v.356zm2.788 3.623c0-.427.136-.777.408-1.052.272-.275.621-.413 1.047-.413.427 0 .777.137 1.05.41.274.274.41.637.41 1.089v.347c0 .426-.136.777-.407 1.052-.272.275-.62.413-1.043.413-.423 0-.773-.136-1.05-.408-.276-.272-.415-.634-.415-1.087v-.351zm.674.38c0 .258.072.469.215.633a.726.726 0 0 0 .576.247c.235 0 .422-.081.562-.242.14-.161.21-.38.21-.657v-.361c0-.257-.071-.467-.213-.63a.716.716 0 0 0-.569-.244c-.23 0-.419.08-.564.242-.144.16-.217.378-.217.651v.362zm-2.466.826l-.512-.322 3.471-5.557.513.322-3.472 5.557z"/>
        </g>
        <g fill="#000">
            <path fill-opacity=".12" fill-rule="nonzero" d="M34 6h434v1H34z"/>
            <path fill-opacity=".54" d="M4.404 7.612h.987v.738h-.987V10h-.908V8.35H.26v-.533l3.183-4.926h.962v4.721zm-3.12 0h2.212V4.126l-.107.195-2.105 3.291zm5.437-1.176l.361-3.545h3.643v.835H7.849l-.215 1.938a2.294 2.294 0 0 1 1.187-.308c.647 0 1.162.214 1.543.643.38.428.571 1.006.571 1.735 0 .733-.198 1.31-.593 1.731-.396.422-.948.633-1.658.633-.628 0-1.141-.174-1.538-.523-.397-.348-.623-.83-.679-1.445h.855c.055.407.2.714.434.92.235.207.544.31.928.31.42 0 .75-.143.989-.43.239-.286.359-.681.359-1.186 0-.475-.13-.857-.389-1.145-.258-.288-.603-.432-1.032-.432-.394 0-.703.086-.928.259l-.24.195-.722-.185zm9.758.532c0 1.058-.18 1.844-.542 2.358-.361.514-.926.772-1.694.772-.758 0-1.32-.252-1.685-.755-.364-.503-.553-1.254-.566-2.253V5.884c0-1.045.18-1.821.542-2.33.361-.507.928-.761 1.7-.761.764 0 1.327.245 1.689.735.361.49.547 1.246.556 2.268v1.172zm-.903-1.236c0-.765-.107-1.322-.322-1.672-.215-.35-.555-.525-1.02-.525-.463 0-.8.174-1.012.523-.211.348-.32.883-.327 1.606V7.11c0 .769.112 1.336.335 1.702.223.366.56.55 1.013.55.446 0 .777-.173.994-.518.216-.345.33-.889.339-1.631v-1.48zm2.082-1.474c0-.427.136-.778.408-1.055.272-.277.621-.415 1.047-.415.433 0 .784.14 1.053.418.268.278.403.638.403 1.081v.347c0 .43-.136.78-.408 1.052-.272.272-.618.408-1.038.408-.423 0-.773-.136-1.05-.408-.276-.272-.415-.634-.415-1.086v-.342zm.674.376a.92.92 0 0 0 .215.627.726.726 0 0 0 .576.247c.231 0 .418-.08.56-.24.14-.159.212-.377.212-.654v-.356a.943.943 0 0 0-.21-.63.708.708 0 0 0-.572-.25.708.708 0 0 0-.57.25c-.14.166-.21.382-.21.65v.356zm2.788 3.623c0-.427.136-.777.408-1.052.272-.275.621-.413 1.047-.413.427 0 .777.137 1.05.41.274.274.41.637.41 1.089v.347c0 .426-.136.777-.407 1.052-.272.275-.62.413-1.043.413-.423 0-.773-.136-1.05-.408-.276-.272-.415-.634-.415-1.087v-.351zm.674.38c0 .258.072.469.215.633a.726.726 0 0 0 .576.247c.235 0 .422-.081.562-.242.14-.161.21-.38.21-.657v-.361c0-.257-.071-.467-.213-.63a.716.716 0 0 0-.569-.244c-.23 0-.419.08-.564.242-.144.16-.217.378-.217.651v.362zm-2.466.826l-.512-.322 3.471-5.557.513.322-3.472 5.557z"/>
        </g>
        <g fill="#000" fill-opacity=".54">
            <path d="M20.56 212h-.909v-6.02l-1.82.668v-.82l2.587-.972h.142V212zm8.456-1.196l1.797-4.087h1.128V212h-.903v-3.843L29.328 212h-.624l-1.743-3.926V212h-.904v-5.283h1.172l1.787 4.087zM36.753 212c-.052-.104-.094-.29-.127-.557-.42.437-.921.655-1.504.655-.52 0-.948-.148-1.281-.442a1.43 1.43 0 0 1-.501-1.12c0-.551.21-.978.627-1.283.419-.304 1.007-.456 1.766-.456h.879v-.415c0-.316-.095-.567-.284-.755-.188-.187-.467-.28-.835-.28-.322 0-.592.081-.81.244-.218.163-.327.36-.327.59h-.909c0-.263.094-.518.281-.764.187-.245.441-.44.762-.583.32-.143.673-.215 1.057-.215.609 0 1.086.152 1.43.457.346.304.525.723.538 1.257v2.432c0 .485.062.87.185 1.157V212h-.947zm-1.499-.688c.283 0 .552-.074.806-.22a1.33 1.33 0 0 0 .552-.571v-1.084h-.708c-1.107 0-1.66.323-1.66.971 0 .283.094.505.283.664.188.16.43.24.727.24zm8.24-1.895c0 .804-.184 1.452-.552 1.943-.368.492-.866.738-1.494.738-.641 0-1.146-.204-1.514-.61v2.543h-.903v-7.314h.825l.044.586c.368-.456.879-.684 1.533-.684.635 0 1.137.24 1.507.718.369.478.554 1.144.554 1.997v.083zm-.904-.103c0-.595-.127-1.066-.38-1.41-.254-.346-.603-.518-1.045-.518-.547 0-.957.242-1.23.727v2.525c.27.481.683.722 1.24.722.432 0 .777-.171 1.032-.515.256-.343.383-.853.383-1.53zm5.686-1.865h-1.772V212H45.6v-4.55h-1.739v-.733h4.414v.732zM52.517 212c-.052-.104-.094-.29-.127-.557-.42.437-.921.655-1.504.655-.52 0-.948-.148-1.282-.442a1.43 1.43 0 0 1-.5-1.12c0-.551.21-.978.627-1.283.419-.304 1.007-.456 1.765-.456h.88v-.415c0-.316-.095-.567-.284-.755-.189-.187-.467-.28-.835-.28-.322 0-.592.081-.81.244-.218.163-.327.36-.327.59h-.909c0-.263.094-.518.281-.764.187-.245.441-.44.762-.583.32-.143.673-.215 1.057-.215.609 0 1.086.152 1.43.457.346.304.525.723.538 1.257v2.432c0 .485.062.87.185 1.157V212h-.947zm-1.499-.688c.283 0 .552-.074.806-.22a1.33 1.33 0 0 0 .551-.571v-1.084h-.708c-1.106 0-1.66.323-1.66.971 0 .283.095.505.283.664.19.16.432.24.728.24zM84.106 212h-4.658v-.65l2.46-2.734c.365-.413.617-.75.755-1.008.139-.259.208-.527.208-.803 0-.371-.112-.676-.337-.913-.225-.238-.524-.357-.899-.357-.449 0-.798.128-1.047.383-.249.256-.373.612-.373 1.067h-.904c0-.654.211-1.183.633-1.587.421-.403.985-.605 1.691-.605.661 0 1.184.173 1.568.52.384.347.576.808.576 1.384 0 .7-.446 1.533-1.338 2.5l-1.904 2.066h3.57V212zm6.768-1.196l1.796-4.087h1.128V212h-.903v-3.843L91.186 212h-.625l-1.743-3.926V212h-.903v-5.283h1.171l1.788 4.087zM98.61 212c-.052-.104-.094-.29-.127-.557-.42.437-.92.655-1.504.655-.52 0-.948-.148-1.281-.442a1.43 1.43 0 0 1-.5-1.12c0-.551.208-.978.627-1.283.418-.304 1.006-.456 1.765-.456h.879v-.415c0-.316-.095-.567-.284-.755-.188-.187-.467-.28-.834-.28-.323 0-.593.081-.811.244-.218.163-.327.36-.327.59h-.908c0-.263.093-.518.28-.764.188-.245.441-.44.762-.583.32-.143.673-.215 1.057-.215.609 0 1.086.152 1.43.457.346.304.525.723.538 1.257v2.432c0 .485.062.87.186 1.157V212h-.948zm-1.499-.688c.283 0 .552-.074.806-.22a1.33 1.33 0 0 0 .552-.571v-1.084h-.708c-1.107 0-1.66.323-1.66.971 0 .283.094.505.283.664.189.16.431.24.727.24zm8.24-1.895c0 .804-.184 1.452-.552 1.943-.368.492-.866.738-1.494.738-.641 0-1.146-.204-1.514-.61v2.543h-.903v-7.314h.825l.044.586c.368-.456.879-.684 1.533-.684.635 0 1.137.24 1.507.718.37.478.554 1.144.554 1.997v.083zm-.903-.103c0-.595-.127-1.066-.381-1.41-.254-.346-.602-.518-1.045-.518-.547 0-.957.242-1.23.727v2.525c.27.481.683.722 1.24.722.433 0 .777-.171 1.032-.515.256-.343.384-.853.384-1.53zm5.686-1.865h-1.773V212h-.903v-4.55h-1.739v-.733h4.415v.732zm4.24 4.551c-.052-.104-.094-.29-.127-.557-.42.437-.921.655-1.504.655-.52 0-.948-.148-1.281-.442a1.43 1.43 0 0 1-.501-1.12c0-.551.21-.978.627-1.283.419-.304 1.007-.456 1.766-.456h.879v-.415c0-.316-.095-.567-.284-.755-.188-.187-.467-.28-.835-.28-.322 0-.592.081-.81.244-.218.163-.327.36-.327.59h-.909c0-.263.094-.518.281-.764.187-.245.441-.44.762-.583.32-.143.673-.215 1.057-.215.609 0 1.086.152 1.43.457.346.304.525.723.538 1.257v2.432c0 .485.062.87.185 1.157V212h-.947zm-1.499-.688c.283 0 .552-.074.806-.22a1.33 1.33 0 0 0 .552-.571v-1.084h-.708c-1.107 0-1.66.323-1.66.971 0 .283.094.505.283.664.188.16.43.24.727.24zM142.619 208.006h.678c.427-.007.762-.119 1.006-.337.244-.218.366-.513.366-.884 0-.833-.415-1.25-1.245-1.25-.39 0-.702.112-.935.335-.233.223-.349.518-.349.886h-.903c0-.563.206-1.031.617-1.404.412-.373.935-.559 1.57-.559.67 0 1.197.177 1.577.532.381.355.572.848.572 1.48 0 .309-.1.608-.3.898-.2.29-.473.506-.818.65.39.123.692.328.905.615.213.286.32.636.32 1.05 0 .638-.208 1.144-.625 1.518-.417.374-.959.562-1.626.562-.667 0-1.21-.181-1.628-.542-.419-.362-.628-.839-.628-1.431h.908c0 .374.123.674.367.898.244.225.571.337.981.337.436 0 .77-.114 1.001-.341.231-.228.347-.555.347-.982 0-.413-.127-.73-.381-.952-.254-.221-.62-.335-1.099-.342h-.678v-.737zm10.112 2.798l1.797-4.087h1.127V212h-.903v-3.843L153.043 212h-.625l-1.743-3.926V212h-.903v-5.283h1.172l1.787 4.087zm7.736 1.196c-.052-.104-.094-.29-.127-.557-.42.437-.92.655-1.503.655-.521 0-.949-.148-1.282-.442a1.43 1.43 0 0 1-.5-1.12c0-.551.208-.978.627-1.283.418-.304 1.006-.456 1.765-.456h.879v-.415c0-.316-.095-.567-.283-.755-.19-.187-.468-.28-.835-.28-.323 0-.593.081-.81.244-.219.163-.328.36-.328.59h-.908c0-.263.093-.518.28-.764.188-.245.442-.44.762-.583.32-.143.673-.215 1.057-.215.61 0 1.086.152 1.431.457.345.304.524.723.537 1.257v2.432c0 .485.062.87.186 1.157V212h-.948zm-1.499-.688c.284 0 .552-.074.806-.22a1.33 1.33 0 0 0 .552-.571v-1.084h-.708c-1.107 0-1.66.323-1.66.971 0 .283.094.505.283.664.189.16.431.24.727.24zm8.24-1.895c0 .804-.184 1.452-.552 1.943-.368.492-.866.738-1.494.738-.641 0-1.146-.204-1.514-.61v2.543h-.903v-7.314h.825l.044.586c.368-.456.88-.684 1.533-.684.635 0 1.137.24 1.507.718.37.478.554 1.144.554 1.997v.083zm-.903-.103c0-.595-.127-1.066-.381-1.41-.254-.346-.602-.518-1.045-.518-.547 0-.957.242-1.23.727v2.525c.27.481.683.722 1.24.722.433 0 .777-.171 1.032-.515.256-.343.384-.853.384-1.53zm5.686-1.865h-1.773V212h-.903v-4.55h-1.738v-.733h4.414v.732zm4.24 4.551c-.052-.104-.094-.29-.127-.557-.42.437-.92.655-1.504.655-.52 0-.948-.148-1.281-.442a1.43 1.43 0 0 1-.5-1.12c0-.551.208-.978.627-1.283.418-.304 1.006-.456 1.765-.456h.879v-.415c0-.316-.095-.567-.284-.755-.188-.187-.467-.28-.834-.28-.323 0-.593.081-.811.244-.218.163-.327.36-.327.59h-.908c0-.263.093-.518.28-.764.188-.245.441-.44.762-.583.32-.143.673-.215 1.057-.215.609 0 1.086.152 1.43.457.346.304.525.723.538 1.257v2.432c0 .485.062.87.186 1.157V212h-.948zm-1.499-.688c.283 0 .552-.074.806-.22a1.33 1.33 0 0 0 .552-.571v-1.084h-.708c-1.107 0-1.66.323-1.66.971 0 .283.094.505.283.664.189.16.431.24.727.24zM206.976 209.612h.986v.738h-.986V212h-.908v-1.65h-3.238v-.533l3.184-4.926h.962v4.721zm-3.12 0h2.212v-3.486l-.108.195-2.104 3.291zm10.732 1.192l1.797-4.087h1.128V212h-.904v-3.843L214.9 212h-.625l-1.743-3.926V212h-.903v-5.283h1.172l1.787 4.087zm7.737 1.196c-.053-.104-.095-.29-.127-.557-.42.437-.922.655-1.504.655-.521 0-.948-.148-1.282-.442a1.43 1.43 0 0 1-.5-1.12c0-.551.209-.978.627-1.283.418-.304 1.007-.456 1.765-.456h.879v-.415c0-.316-.094-.567-.283-.755-.19-.187-.467-.28-.835-.28-.322 0-.593.081-.81.244-.219.163-.328.36-.328.59h-.908c0-.263.093-.518.28-.764.188-.245.442-.44.762-.583.321-.143.673-.215 1.057-.215.61 0 1.086.152 1.431.457.345.304.524.723.537 1.257v2.432c0 .485.062.87.186 1.157V212h-.947zm-1.5-.688c.284 0 .552-.074.806-.22a1.33 1.33 0 0 0 .552-.571v-1.084h-.708c-1.107 0-1.66.323-1.66.971 0 .283.094.505.283.664.189.16.431.24.728.24zm8.24-1.895c0 .804-.184 1.452-.552 1.943-.367.492-.865.738-1.494.738-.641 0-1.146-.204-1.513-.61v2.543h-.904v-7.314h.825l.044.586c.368-.456.88-.684 1.534-.684.634 0 1.137.24 1.506.718.37.478.554 1.144.554 1.997v.083zm-.903-.103c0-.595-.127-1.066-.381-1.41-.254-.346-.602-.518-1.045-.518-.547 0-.957.242-1.23.727v2.525c.27.481.683.722 1.24.722.433 0 .777-.171 1.033-.515.255-.343.383-.853.383-1.53zm5.686-1.865h-1.773V212h-.903v-4.55h-1.738v-.733h4.414v.732zm4.24 4.551c-.052-.104-.094-.29-.127-.557-.42.437-.92.655-1.503.655-.521 0-.949-.148-1.282-.442a1.43 1.43 0 0 1-.5-1.12c0-.551.208-.978.627-1.283.418-.304 1.006-.456 1.765-.456h.879v-.415c0-.316-.095-.567-.283-.755-.19-.187-.468-.28-.835-.28-.323 0-.593.081-.81.244-.219.163-.328.36-.328.59h-.908c0-.263.093-.518.28-.764.188-.245.442-.44.762-.583.32-.143.673-.215 1.057-.215.61 0 1.086.152 1.431.457.345.304.524.723.537 1.257v2.432c0 .485.062.87.186 1.157V212h-.948zm-1.499-.688c.284 0 .552-.074.806-.22a1.33 1.33 0 0 0 .552-.571v-1.084h-.708c-1.107 0-1.66.323-1.66.971 0 .283.094.505.283.664.189.16.431.24.727.24zM265.434 208.436l.362-3.545h3.642v.835h-2.876l-.214 1.938a2.294 2.294 0 0 1 1.186-.308c.648 0 1.162.214 1.543.643.38.428.571 1.006.571 1.735 0 .733-.197 1.31-.593 1.731-.395.422-.948.633-1.658.633-.628 0-1.14-.174-1.538-.523-.397-.348-.623-.83-.678-1.445h.854c.055.407.2.714.435.92.234.207.543.31.927.31.42 0 .75-.143.99-.43.238-.286.358-.681.358-1.186 0-.475-.13-.857-.388-1.145-.259-.288-.603-.432-1.033-.432-.394 0-.703.086-.928.259l-.239.195-.723-.185zm11.011 2.368l1.797-4.087h1.128V212h-.904v-3.843L276.757 212h-.625l-1.743-3.926V212h-.903v-5.283h1.172l1.787 4.087zm7.737 1.196c-.052-.104-.095-.29-.127-.557-.42.437-.921.655-1.504.655-.521 0-.948-.148-1.282-.442a1.43 1.43 0 0 1-.5-1.12c0-.551.209-.978.627-1.283.418-.304 1.007-.456 1.765-.456h.88v-.415c0-.316-.095-.567-.284-.755-.189-.187-.467-.28-.835-.28-.322 0-.593.081-.81.244-.219.163-.328.36-.328.59h-.908c0-.263.094-.518.28-.764.188-.245.442-.44.763-.583.32-.143.673-.215 1.057-.215.608 0 1.085.152 1.43.457.345.304.524.723.537 1.257v2.432c0 .485.062.87.186 1.157V212h-.947zm-1.5-.688c.284 0 .552-.074.806-.22a1.33 1.33 0 0 0 .552-.571v-1.084h-.708c-1.107 0-1.66.323-1.66.971 0 .283.094.505.283.664.189.16.431.24.728.24zm8.24-1.895c0 .804-.184 1.452-.551 1.943-.368.492-.866.738-1.495.738-.64 0-1.145-.204-1.513-.61v2.543h-.904v-7.314h.826l.044.586c.367-.456.878-.684 1.533-.684.635 0 1.137.24 1.506.718.37.478.554 1.144.554 1.997v.083zm-.903-.103c0-.595-.127-1.066-.38-1.41-.255-.346-.603-.518-1.046-.518-.547 0-.957.242-1.23.727v2.525c.27.481.683.722 1.24.722.433 0 .777-.171 1.033-.515.255-.343.383-.853.383-1.53zm5.686-1.865h-1.773V212h-.903v-4.55h-1.738v-.733h4.414v.732zm4.24 4.551c-.052-.104-.094-.29-.126-.557-.42.437-.922.655-1.504.655-.521 0-.948-.148-1.282-.442a1.43 1.43 0 0 1-.5-1.12c0-.551.209-.978.627-1.283.418-.304 1.007-.456 1.765-.456h.879v-.415c0-.316-.094-.567-.283-.755-.189-.187-.467-.28-.835-.28-.322 0-.593.081-.81.244-.219.163-.328.36-.328.59h-.908c0-.263.093-.518.28-.764.188-.245.442-.44.762-.583.321-.143.673-.215 1.058-.215.608 0 1.085.152 1.43.457.345.304.524.723.537 1.257v2.432c0 .485.062.87.186 1.157V212h-.947zm-1.498-.688c.283 0 .551-.074.805-.22a1.33 1.33 0 0 0 .552-.571v-1.084h-.708c-1.107 0-1.66.323-1.66.971 0 .283.094.505.283.664.189.16.431.24.728.24zM330.421 204.886v.766h-.166c-.703.013-1.263.222-1.68.625-.416.404-.657.972-.722 1.704.374-.43.886-.644 1.533-.644.619 0 1.113.218 1.482.654.37.436.554 1 .554 1.69 0 .732-.199 1.318-.598 1.757-.398.44-.933.66-1.604.66-.68 0-1.232-.262-1.655-.784-.423-.522-.635-1.196-.635-2.02v-.346c0-1.308.28-2.309.838-3 .558-.692 1.389-1.046 2.492-1.062h.161zm-1.186 3.203c-.31 0-.594.093-.855.278a1.45 1.45 0 0 0-.542.698v.332c0 .586.132 1.058.396 1.416.264.359.592.538.986.538.407 0 .727-.15.96-.45.233-.3.349-.691.349-1.176 0-.489-.118-.883-.354-1.184a1.135 1.135 0 0 0-.94-.452zm9.067 2.715l1.797-4.087h1.128V212h-.903v-3.843l-1.71 3.843h-.624l-1.744-3.926V212h-.903v-5.283h1.172l1.787 4.087zM346.04 212c-.052-.104-.095-.29-.127-.557-.42.437-.921.655-1.504.655-.52 0-.948-.148-1.282-.442a1.43 1.43 0 0 1-.5-1.12c0-.551.209-.978.627-1.283.418-.304 1.007-.456 1.765-.456h.88v-.415c0-.316-.095-.567-.284-.755-.189-.187-.467-.28-.835-.28-.322 0-.592.081-.81.244-.219.163-.328.36-.328.59h-.908c0-.263.094-.518.28-.764.188-.245.442-.44.763-.583.32-.143.673-.215 1.057-.215.609 0 1.085.152 1.43.457.346.304.525.723.538 1.257v2.432c0 .485.061.87.185 1.157V212h-.947zm-1.5-.688c.284 0 .553-.074.806-.22a1.33 1.33 0 0 0 .552-.571v-1.084h-.708c-1.107 0-1.66.323-1.66.971 0 .283.094.505.283.664.19.16.432.24.728.24zm8.24-1.895c0 .804-.183 1.452-.551 1.943-.368.492-.866.738-1.494.738-.642 0-1.146-.204-1.514-.61v2.543h-.903v-7.314h.825l.044.586c.368-.456.879-.684 1.533-.684.635 0 1.137.24 1.506.718.37.478.554 1.144.554 1.997v.083zm-.903-.103c0-.595-.127-1.066-.38-1.41-.255-.346-.603-.518-1.046-.518-.547 0-.957.242-1.23.727v2.525c.27.481.683.722 1.24.722.433 0 .777-.171 1.033-.515.255-.343.383-.853.383-1.53zm5.686-1.865h-1.772V212h-.904v-4.55h-1.738v-.733h4.414v.732zm4.24 4.551c-.051-.104-.094-.29-.126-.557-.42.437-.921.655-1.504.655-.521 0-.948-.148-1.282-.442a1.43 1.43 0 0 1-.5-1.12c0-.551.209-.978.627-1.283.418-.304 1.007-.456 1.765-.456h.88v-.415c0-.316-.095-.567-.284-.755-.189-.187-.467-.28-.835-.28-.322 0-.593.081-.81.244-.219.163-.328.36-.328.59h-.908c0-.263.094-.518.28-.764.188-.245.442-.44.763-.583.32-.143.673-.215 1.057-.215.608 0 1.085.152 1.43.457.345.304.524.723.537 1.257v2.432c0 .485.062.87.186 1.157V212h-.947zm-1.498-.688c.283 0 .551-.074.805-.22a1.33 1.33 0 0 0 .552-.571v-1.084h-.708c-1.107 0-1.66.323-1.66.971 0 .283.094.505.283.664.189.16.431.24.728.24zM393.324 205.398L390.379 212h-.947l2.934-6.367h-3.847v-.742h4.805v.507zm6.835 5.406l1.797-4.087h1.128V212h-.903v-3.843L400.47 212h-.624l-1.743-3.926V212h-.904v-5.283h1.172l1.787 4.087zm7.737 1.196c-.052-.104-.094-.29-.127-.557-.42.437-.921.655-1.504.655-.52 0-.948-.148-1.282-.442a1.43 1.43 0 0 1-.5-1.12c0-.551.209-.978.627-1.283.419-.304 1.007-.456 1.765-.456h.88v-.415c0-.316-.095-.567-.284-.755-.189-.187-.467-.28-.835-.28-.322 0-.592.081-.81.244-.218.163-.327.36-.327.59h-.909c0-.263.094-.518.281-.764.187-.245.441-.44.762-.583.32-.143.673-.215 1.057-.215.609 0 1.086.152 1.43.457.346.304.525.723.538 1.257v2.432c0 .485.062.87.185 1.157V212h-.947zm-1.499-.688c.283 0 .552-.074.806-.22a1.33 1.33 0 0 0 .551-.571v-1.084h-.708c-1.106 0-1.66.323-1.66.971 0 .283.095.505.283.664.19.16.432.24.728.24zm8.24-1.895c0 .804-.184 1.452-.552 1.943-.368.492-.866.738-1.494.738-.642 0-1.146-.204-1.514-.61v2.543h-.903v-7.314h.825l.044.586c.368-.456.879-.684 1.533-.684.635 0 1.137.24 1.506.718.37.478.555 1.144.555 1.997v.083zm-.904-.103c0-.595-.127-1.066-.38-1.41-.254-.346-.603-.518-1.045-.518-.547 0-.958.242-1.231.727v2.525c.27.481.684.722 1.24.722.433 0 .777-.171 1.033-.515.256-.343.383-.853.383-1.53zm5.686-1.865h-1.772V212h-.904v-4.55h-1.738v-.733h4.414v.732zm4.24 4.551c-.051-.104-.094-.29-.126-.557-.42.437-.921.655-1.504.655-.52 0-.948-.148-1.282-.442a1.43 1.43 0 0 1-.5-1.12c0-.551.209-.978.627-1.283.419-.304 1.007-.456 1.765-.456h.88v-.415c0-.316-.095-.567-.284-.755-.189-.187-.467-.28-.835-.28-.322 0-.592.081-.81.244-.219.163-.328.36-.328.59h-.908c0-.263.094-.518.28-.764.188-.245.442-.44.763-.583.32-.143.673-.215 1.057-.215.609 0 1.085.152 1.43.457.346.304.525.723.538 1.257v2.432c0 .485.061.87.185 1.157V212h-.947zm-1.498-.688c.283 0 .552-.074.805-.22a1.33 1.33 0 0 0 .552-.571v-1.084h-.708c-1.107 0-1.66.323-1.66.971 0 .283.094.505.283.664.19.16.432.24.728.24zM454.902 206.746c0 .355-.093.67-.28.947a1.91 1.91 0 0 1-.76.65c.371.16.665.392.882.698.216.306.324.653.324 1.04 0 .615-.207 1.105-.622 1.47-.415.364-.961.547-1.638.547-.684 0-1.232-.183-1.643-.55-.412-.366-.618-.855-.618-1.467 0-.384.105-.73.315-1.04.21-.31.5-.544.871-.703a1.863 1.863 0 0 1-.747-.65 1.674 1.674 0 0 1-.273-.942c0-.599.192-1.074.576-1.426.384-.351.89-.527 1.519-.527.625 0 1.13.176 1.516.527.385.352.578.827.578 1.426zm-.737 3.316c0-.398-.126-.722-.378-.972-.253-.25-.582-.376-.99-.376-.406 0-.732.124-.978.371s-.369.573-.369.977c0 .403.12.72.36.952.238.23.571.346.998.346.423 0 .755-.116.996-.349.24-.233.361-.55.361-.95zm-1.357-4.527c-.355 0-.642.11-.862.33-.22.22-.33.518-.33.896 0 .361.108.653.325.876.216.223.505.335.867.335.36 0 .65-.112.866-.335.217-.223.325-.515.325-.876 0-.362-.112-.656-.337-.884a1.15 1.15 0 0 0-.854-.342zm9.208 5.269l1.797-4.087h1.128V212h-.903v-3.843l-1.71 3.843h-.624l-1.743-3.926V212h-.904v-5.283h1.172l1.787 4.087zm7.737 1.196c-.052-.104-.094-.29-.127-.557-.42.437-.921.655-1.504.655-.52 0-.948-.148-1.281-.442a1.43 1.43 0 0 1-.501-1.12c0-.551.21-.978.627-1.283.419-.304 1.007-.456 1.766-.456h.879v-.415c0-.316-.095-.567-.284-.755-.188-.187-.467-.28-.835-.28-.322 0-.592.081-.81.244-.218.163-.327.36-.327.59h-.909c0-.263.094-.518.281-.764.187-.245.441-.44.762-.583.32-.143.673-.215 1.057-.215.609 0 1.086.152 1.43.457.346.304.525.723.538 1.257v2.432c0 .485.062.87.185 1.157V212h-.947zm-1.499-.688c.283 0 .552-.074.806-.22a1.33 1.33 0 0 0 .552-.571v-1.084h-.708c-1.107 0-1.66.323-1.66.971 0 .283.094.505.283.664.188.16.43.24.727.24zm8.24-1.895c0 .804-.184 1.452-.552 1.943-.368.492-.866.738-1.494.738-.641 0-1.146-.204-1.514-.61v2.543h-.903v-7.314h.825l.044.586c.368-.456.879-.684 1.533-.684.635 0 1.137.24 1.507.718.369.478.554 1.144.554 1.997v.083zm-.904-.103c0-.595-.127-1.066-.38-1.41-.254-.346-.603-.518-1.045-.518-.547 0-.957.242-1.23.727v2.525c.27.481.683.722 1.24.722.432 0 .777-.171 1.032-.515.256-.343.383-.853.383-1.53zm5.686-1.865h-1.772V212h-.903v-4.55h-1.739v-.733h4.414v.732zm4.241 4.551c-.052-.104-.094-.29-.127-.557-.42.437-.921.655-1.504.655-.52 0-.948-.148-1.282-.442a1.43 1.43 0 0 1-.5-1.12c0-.551.21-.978.627-1.283.419-.304 1.007-.456 1.765-.456h.88v-.415c0-.316-.095-.567-.284-.755-.189-.187-.467-.28-.835-.28-.322 0-.592.081-.81.244-.218.163-.327.36-.327.59h-.909c0-.263.094-.518.281-.764.187-.245.441-.44.762-.583.32-.143.673-.215 1.057-.215.609 0 1.086.152 1.43.457.346.304.525.723.538 1.257v2.432c0 .485.062.87.185 1.157V212h-.947zm-1.499-.688c.283 0 .552-.074.806-.22a1.33 1.33 0 0 0 .551-.571v-1.084h-.708c-1.106 0-1.66.323-1.66.971 0 .283.095.505.283.664.19.16.432.24.728.24z"/>
        </g>
        <path fill="#FF64A4" fill-opacity=".12" fill-rule="nonzero" d="M34 165.327l61.886-3.673 61.886-5.022L219.658 169l61.886-15.122 61.886-27.117 61.886-94.579L467.202 23v142.327z"/>
        <path fill-rule="nonzero" stroke="#FF64A4" stroke-linecap="round" stroke-linejoin="round" stroke-opacity=".65" stroke-width="2" d="M34 164.352l61.886-3.648 61.886-4.987L219.658 168l61.886-15.019 61.886-26.93 61.886-93.932L467.202 23"/>
        <g transform="translate(23 140)">
            <circle cx="12" cy="24" r="3" fill="#FF64A4" fill-rule="nonzero" stroke="#FFF" stroke-width="2"/>
            <path fill="#FFF" d="M17.375 27.716c-.01-.082-.287-1.945-1.597-3.016 1.31-1.06 1.586-2.915 1.597-3.002l.052-.381-.358-.147a5.797 5.797 0 0 0-2-.376c-.455 0-.867.085-1.253.213-.296-1.608-1.74-2.728-1.808-2.78L11.706 18l-.3.228c-.064.048-1.4 1.088-1.767 2.599a3.968 3.968 0 0 0-1.264-.2c-1.08 0-1.98.366-2.02.382L6 21.155l.051.382c.011.083.288 1.947 1.597 3.017-1.31 1.059-1.586 2.914-1.597 3l-.05.383.355.146c.04.016.932.377 2.003.377a3.92 3.92 0 0 0 1.251-.213c.297 1.608 1.74 2.727 1.808 2.779l.302.228.301-.228c.063-.048 1.4-1.088 1.767-2.6.386.129.806.2 1.263.2a5.832 5.832 0 0 0 2.02-.381l.356-.147-.052-.382z"/>
            <path fill="#FF64A4" d="M12.91 23.787c.798-.406 1.588-.782 1.588-.782s-1.08.837-2.06 1.361a6.27 6.27 0 0 1-.391.388c.643.18 1.996.432 3.08-.192 1.476-.85 1.754-2.93 1.754-2.93s-1.76-.722-3.202-.059v.017c0 .384-.091 1.23-.77 2.197M15.319 24.96l-.016.01c-.592.342-1.246.453-1.846.453-.162 0-.321-.008-.473-.023.76.493 1.494.997 1.494.997s-1.283-.52-2.237-1.113a5.676 5.676 0 0 1-.336-.084l-.191-.053c.168.653.628 1.956 1.718 2.584 1.49.86 3.449.051 3.449.051s-.255-1.898-1.562-2.822"/>
            <path fill="#FF64A4" d="M11.836 26.16a76.737 76.737 0 0 1-.116 1.754s-.19-1.343-.154-2.44a5.47 5.47 0 0 1-.093-.322l-.05-.192c-.48.463-1.377 1.49-1.377 2.721 0 1.681 1.674 2.946 1.674 2.946s1.512-1.146 1.66-2.705l-.016-.008c-.75-.426-1.228-1.116-1.528-1.754"/>
            <path fill="#FF64A4" d="M10.532 25.461c-.802.408-1.601.787-1.601.787s1.086-.842 2.07-1.366a7.17 7.17 0 0 1 .235-.243l.145-.14c-.647-.18-1.996-.43-3.078.192-1.48.851-1.756 2.93-1.756 2.93s1.76.722 3.205.06v-.019c0-.86.368-1.62.78-2.2M11.59 23.093c.047-.885.116-1.754.116-1.754s.19 1.343.154 2.441c.037.115.068.223.093.32l.051.193c.481-.463 1.376-1.49 1.376-2.72 0-1.683-1.674-2.947-1.674-2.947s-1.512 1.145-1.66 2.705l.017.008c.75.425 1.227 1.116 1.527 1.754"/>
            <path fill="#FF64A4" d="M8.108 24.294a.086.086 0 0 0 .016-.01c.753-.434 1.604-.496 2.319-.431a80.981 80.981 0 0 1-1.494-.996s1.283.52 2.237 1.113c.12.027.233.054.33.082l.197.055c-.168-.654-.628-1.956-1.718-2.584-1.49-.86-3.45-.052-3.45-.052s.256 1.899 1.563 2.823"/>
        </g>
        <path fill="#FFF" d="M105.375 163.716c-.01-.082-.287-1.945-1.597-3.016 1.31-1.06 1.586-2.915 1.597-3.002l.052-.381-.358-.147a5.797 5.797 0 0 0-2-.376c-.455 0-.867.085-1.253.213-.296-1.608-1.74-2.728-1.808-2.78l-.302-.227-.3.228c-.064.048-1.4 1.088-1.767 2.599a3.968 3.968 0 0 0-1.264-.2c-1.08 0-1.98.366-2.02.382l-.355.146.051.382c.011.083.288 1.947 1.597 3.017-1.31 1.059-1.586 2.914-1.597 3l-.05.383.355.146c.04.016.932.377 2.003.377a3.92 3.92 0 0 0 1.251-.213c.297 1.608 1.74 2.727 1.808 2.779l.302.228.301-.228c.063-.048 1.4-1.088 1.767-2.6.386.129.806.2 1.263.2a5.832 5.832 0 0 0 2.02-.381l.356-.147-.052-.382z"/>
        <path fill="#FF64A4" d="M100.91 159.787c.797-.406 1.587-.782 1.587-.782s-1.079.837-2.059 1.361a6.27 6.27 0 0 1-.392.388c.643.18 1.996.432 3.08-.192 1.476-.85 1.754-2.93 1.754-2.93s-1.758-.722-3.201-.059v.017c0 .384-.091 1.23-.77 2.197M103.319 160.96l-.016.01c-.592.342-1.246.453-1.846.453-.162 0-.321-.008-.473-.023.76.493 1.494.997 1.494.997s-1.283-.52-2.237-1.113a5.676 5.676 0 0 1-.336-.084l-.191-.053c.168.653.628 1.956 1.718 2.584 1.49.86 3.449.051 3.449.051s-.255-1.898-1.562-2.822"/>
        <path fill="#FF64A4" d="M99.836 162.16a76.737 76.737 0 0 1-.116 1.754s-.19-1.343-.154-2.44a5.47 5.47 0 0 1-.093-.322l-.05-.192c-.48.463-1.377 1.49-1.377 2.721 0 1.681 1.674 2.946 1.674 2.946s1.512-1.146 1.66-2.705l-.016-.008c-.75-.426-1.228-1.116-1.528-1.754"/>
        <path fill="#FF64A4" d="M98.532 161.461c-.802.408-1.601.787-1.601.787s1.086-.842 2.07-1.366a7.17 7.17 0 0 1 .235-.243l.145-.14c-.647-.18-1.996-.43-3.078.192-1.48.851-1.756 2.93-1.756 2.93s1.76.722 3.205.06v-.019c0-.86.368-1.62.78-2.2M99.59 159.093c.047-.885.116-1.754.116-1.754s.19 1.343.154 2.441c.037.115.068.223.093.32l.051.193c.481-.463 1.376-1.49 1.376-2.72 0-1.683-1.674-2.947-1.674-2.947s-1.512 1.145-1.66 2.705l.017.008c.75.425 1.227 1.116 1.527 1.754"/>
        <path fill="#FF64A4" d="M96.108 160.294a.086.086 0 0 0 .016-.01c.753-.434 1.604-.496 2.319-.431a80.981 80.981 0 0 1-1.494-.996s1.283.52 2.237 1.113c.12.027.233.054.33.082l.197.055c-.168-.654-.628-1.956-1.718-2.584-1.49-.86-3.45-.052-3.45-.052s.256 1.899 1.563 2.823M93.407 143.265h1.012c.51-.005.914-.137 1.213-.397.298-.26.448-.636.448-1.128 0-.474-.124-.842-.373-1.104-.248-.262-.628-.393-1.138-.393-.447 0-.813.129-1.1.386-.288.258-.431.594-.431 1.009h-1.661c0-.51.135-.976.406-1.395.272-.42.65-.746 1.135-.98a3.696 3.696 0 0 1 1.63-.353c.994 0 1.774.25 2.342.749.567.499.85 1.193.85 2.081 0 .447-.142.867-.426 1.261a2.68 2.68 0 0 1-1.104.893c.546.186.962.48 1.247.881.285.401.427.88.427 1.436 0 .893-.306 1.604-.919 2.133-.613.528-1.418.793-2.417.793-.957 0-1.74-.255-2.351-.766-.61-.51-.916-1.19-.916-2.037h1.661c0 .437.147.793.44 1.066.295.274.69.41 1.187.41.515 0 .92-.136 1.217-.41.296-.273.444-.67.444-1.19 0-.523-.155-.926-.465-1.209-.31-.283-.77-.424-1.38-.424h-.978v-1.312zm6.108-2.304c0-.602.193-1.095.58-1.48.388-.385.896-.578 1.525-.578.638 0 1.15.193 1.535.578.385.385.577.89.577 1.514v.492c0 .597-.192 1.087-.577 1.47-.385.383-.892.574-1.521.574-.615 0-1.122-.188-1.521-.564-.399-.376-.598-.883-.598-1.52v-.486zm1.162.526c0 .315.087.569.263.763.175.193.407.29.694.29.282 0 .51-.097.683-.29.174-.194.26-.457.26-.79v-.5c0-.314-.088-.569-.263-.765a.886.886 0 0 0-.694-.294c-.287 0-.516.1-.687.298-.17.198-.256.459-.256.782v.506zm3.623 5.073c0-.611.198-1.106.595-1.484.396-.378.902-.567 1.517-.567.62 0 1.127.189 1.521.567.394.378.591.889.591 1.531v.486c0 .592-.19 1.081-.57 1.466-.38.385-.89.578-1.528.578s-1.152-.19-1.542-.571c-.39-.38-.584-.883-.584-1.507v-.5zm1.162.533c0 .31.09.564.27.762.18.198.411.297.694.297.291 0 .52-.094.687-.283.166-.19.25-.455.25-.797v-.512c0-.32-.09-.575-.267-.766a.891.891 0 0 0-.684-.287.888.888 0 0 0-.687.287c-.175.191-.263.456-.263.793v.506zm-3.486 1.162l-.855-.492 4.86-7.78.855.493-4.86 7.779z"/>
        <g>
            <path fill="#FFF" d="M163.375 158.716c-.01-.082-.287-1.945-1.597-3.016 1.31-1.06 1.586-2.915 1.597-3.002l.052-.381-.358-.147a5.797 5.797 0 0 0-2-.376c-.455 0-.867.085-1.253.213-.296-1.608-1.74-2.728-1.808-2.78l-.302-.227-.3.228c-.064.048-1.4 1.088-1.767 2.599a3.968 3.968 0 0 0-1.264-.2c-1.08 0-1.98.366-2.02.382l-.355.146.051.382c.011.083.288 1.947 1.597 3.017-1.31 1.059-1.586 2.914-1.597 3l-.05.383.355.146c.04.016.932.377 2.003.377a3.92 3.92 0 0 0 1.251-.213c.297 1.608 1.74 2.727 1.808 2.779l.302.228.301-.228c.063-.048 1.4-1.088 1.767-2.6.386.129.806.2 1.263.2a5.832 5.832 0 0 0 2.02-.381l.356-.147-.052-.382z"/>
            <path fill="#FF64A4" d="M158.91 154.787c.798-.406 1.588-.782 1.588-.782s-1.08.837-2.06 1.361a6.27 6.27 0 0 1-.391.388c.643.18 1.996.432 3.08-.192 1.476-.85 1.754-2.93 1.754-2.93s-1.76-.722-3.202-.059v.017c0 .384-.091 1.23-.77 2.197M161.319 155.96l-.016.01c-.592.342-1.246.453-1.846.453-.162 0-.321-.008-.473-.023.76.493 1.494.997 1.494.997s-1.283-.52-2.237-1.113a5.676 5.676 0 0 1-.336-.084l-.191-.053c.168.653.628 1.956 1.718 2.584 1.49.86 3.449.051 3.449.051s-.255-1.898-1.562-2.822"/>
            <path fill="#FF64A4" d="M157.836 157.16a76.737 76.737 0 0 1-.116 1.754s-.19-1.343-.154-2.44a5.47 5.47 0 0 1-.093-.322l-.05-.192c-.48.463-1.377 1.49-1.377 2.721 0 1.681 1.674 2.946 1.674 2.946s1.512-1.146 1.66-2.705l-.016-.008c-.75-.426-1.228-1.116-1.528-1.754"/>
            <path fill="#FF64A4" d="M156.532 156.461c-.802.408-1.601.787-1.601.787s1.086-.842 2.07-1.366a7.17 7.17 0 0 1 .235-.243l.145-.14c-.647-.18-1.996-.43-3.078.192-1.48.851-1.756 2.93-1.756 2.93s1.76.722 3.205.06v-.019c0-.86.368-1.62.78-2.2M157.59 154.093c.047-.885.116-1.754.116-1.754s.19 1.343.154 2.441c.037.115.068.223.093.32l.051.193c.481-.463 1.376-1.49 1.376-2.72 0-1.683-1.674-2.947-1.674-2.947s-1.512 1.145-1.66 2.705l.017.008c.75.425 1.227 1.116 1.527 1.754"/>
            <path fill="#FF64A4" d="M154.108 155.294a.086.086 0 0 0 .016-.01c.753-.434 1.604-.496 2.319-.431a80.981 80.981 0 0 1-1.494-.996s1.283.52 2.237 1.113c.12.027.233.054.33.082l.197.055c-.168-.654-.628-1.956-1.718-2.584-1.49-.86-3.45-.052-3.45-.052s.256 1.899 1.563 2.823M150.436 144h-1.655v-7.991l-2.44.834v-1.402l3.883-1.428h.212V144zm5.52-5.735h1.011c.51-.005.915-.137 1.213-.397.299-.26.448-.636.448-1.128 0-.474-.124-.842-.372-1.104-.249-.262-.628-.393-1.138-.393-.447 0-.814.129-1.101.386-.287.258-.43.594-.43 1.009h-1.662c0-.51.136-.976.407-1.395.271-.42.65-.746 1.135-.98a3.696 3.696 0 0 1 1.63-.353c.993 0 1.774.25 2.341.749.568.499.851 1.193.851 2.081 0 .447-.142.867-.427 1.261a2.68 2.68 0 0 1-1.104.893c.547.186.963.48 1.248.881.285.401.427.88.427 1.436 0 .893-.307 1.604-.92 2.133-.612.528-1.418.793-2.416.793-.957 0-1.74-.255-2.352-.766-.61-.51-.916-1.19-.916-2.037h1.662c0 .437.147.793.44 1.066.294.274.69.41 1.186.41.515 0 .921-.136 1.217-.41.297-.273.445-.67.445-1.19 0-.523-.155-.926-.465-1.209-.31-.283-.77-.424-1.381-.424h-.978v-1.312zm6.107-2.304c0-.602.194-1.095.581-1.48.388-.385.896-.578 1.525-.578.638 0 1.15.193 1.534.578.385.385.578.89.578 1.514v.492c0 .597-.193 1.087-.578 1.47-.385.383-.892.574-1.52.574-.616 0-1.123-.188-1.522-.564-.398-.376-.598-.883-.598-1.52v-.486zm1.162.526c0 .315.088.569.263.763.176.193.407.29.694.29.283 0 .51-.097.684-.29.173-.194.26-.457.26-.79v-.5c0-.314-.088-.569-.264-.765a.886.886 0 0 0-.693-.294c-.287 0-.516.1-.687.298-.171.198-.257.459-.257.782v.506zm3.623 5.073c0-.611.199-1.106.595-1.484.397-.378.902-.567 1.518-.567.62 0 1.126.189 1.52.567.395.378.592.889.592 1.531v.486c0 .592-.19 1.081-.57 1.466-.381.385-.89.578-1.529.578-.638 0-1.152-.19-1.541-.571-.39-.38-.585-.883-.585-1.507v-.5zm1.162.533c0 .31.09.564.27.762.18.198.412.297.694.297.292 0 .521-.094.687-.283.167-.19.25-.455.25-.797v-.512c0-.32-.089-.575-.267-.766a.891.891 0 0 0-.683-.287.888.888 0 0 0-.687.287c-.176.191-.264.456-.264.793v.506zm-3.486 1.162l-.854-.492 4.86-7.78.854.493-4.86 7.779z"/>
        </g>
        <g>
            <path fill="#FFF" d="M225.375 170.716c-.01-.082-.287-1.945-1.597-3.016 1.31-1.06 1.586-2.915 1.597-3.002l.052-.381-.358-.147a5.797 5.797 0 0 0-2-.376c-.455 0-.867.085-1.253.213-.296-1.608-1.74-2.728-1.808-2.78l-.302-.227-.3.228c-.064.048-1.4 1.088-1.767 2.599a3.968 3.968 0 0 0-1.264-.2c-1.08 0-1.98.366-2.02.382l-.355.146.051.382c.011.083.288 1.947 1.597 3.017-1.31 1.059-1.586 2.914-1.597 3l-.05.383.355.146c.04.016.932.377 2.003.377a3.92 3.92 0 0 0 1.251-.213c.297 1.608 1.74 2.727 1.808 2.779l.302.228.301-.228c.063-.048 1.4-1.088 1.767-2.6.386.129.806.2 1.263.2a5.832 5.832 0 0 0 2.02-.381l.356-.147-.052-.382z"/>
            <path fill="#FF64A4" d="M220.91 166.787c.798-.406 1.588-.782 1.588-.782s-1.08.837-2.06 1.361a6.27 6.27 0 0 1-.391.388c.643.18 1.996.432 3.08-.192 1.476-.85 1.754-2.93 1.754-2.93s-1.76-.722-3.202-.059v.017c0 .384-.091 1.23-.77 2.197M223.319 167.96l-.016.01c-.592.342-1.246.453-1.846.453-.162 0-.321-.008-.473-.023.76.493 1.494.997 1.494.997s-1.283-.52-2.237-1.113a5.676 5.676 0 0 1-.336-.084l-.191-.053c.168.653.628 1.956 1.718 2.584 1.49.86 3.449.051 3.449.051s-.255-1.898-1.562-2.822"/>
            <path fill="#FF64A4" d="M219.836 169.16a76.737 76.737 0 0 1-.116 1.754s-.19-1.343-.154-2.44a5.47 5.47 0 0 1-.093-.322l-.05-.192c-.48.463-1.377 1.49-1.377 2.721 0 1.681 1.674 2.946 1.674 2.946s1.512-1.146 1.66-2.705l-.016-.008c-.75-.426-1.228-1.116-1.528-1.754"/>
            <path fill="#FF64A4" d="M218.532 168.461c-.802.408-1.601.787-1.601.787s1.086-.842 2.07-1.366a7.17 7.17 0 0 1 .235-.243l.145-.14c-.647-.18-1.996-.43-3.078.192-1.48.851-1.756 2.93-1.756 2.93s1.76.722 3.205.06v-.019c0-.86.368-1.62.78-2.2M219.59 166.093c.047-.885.116-1.754.116-1.754s.19 1.343.154 2.441c.037.115.068.223.093.32l.051.193c.481-.463 1.376-1.49 1.376-2.72 0-1.683-1.674-2.947-1.674-2.947s-1.512 1.145-1.66 2.705l.017.008c.75.425 1.227 1.116 1.527 1.754"/>
            <path fill="#FF64A4" d="M216.108 167.294a.086.086 0 0 0 .016-.01c.753-.434 1.604-.496 2.319-.431a80.981 80.981 0 0 1-1.494-.996s1.283.52 2.237 1.113c.12.027.233.054.33.082l.197.055c-.168-.654-.628-1.956-1.718-2.584-1.49-.86-3.45-.052-3.45-.052s.256 1.899 1.563 2.823M212.448 152.438h-3.589v-1.34h3.59v1.34zm1.85-1.374l.54-5.017h5.345v1.435h-3.965l-.273 2.38c.46-.265.98-.397 1.558-.397.948 0 1.685.303 2.212.909.526.606.79 1.422.79 2.447 0 1.012-.292 1.818-.876 2.417-.583.6-1.383.899-2.4.899-.91 0-1.666-.259-2.265-.776-.6-.517-.924-1.2-.974-2.048h1.606c.064.484.237.854.52 1.111.282.258.651.387 1.107.387.51 0 .908-.183 1.193-.547.285-.365.427-.862.427-1.49 0-.607-.157-1.086-.472-1.44-.314-.353-.747-.53-1.298-.53-.301 0-.556.04-.766.12-.21.08-.438.236-.684.469l-1.326-.329zm7.584-3.103c0-.602.193-1.095.58-1.48.388-.385.896-.578 1.525-.578.638 0 1.15.193 1.535.578.385.385.577.89.577 1.514v.492c0 .597-.192 1.087-.577 1.47-.385.383-.892.574-1.521.574-.616 0-1.123-.188-1.521-.564-.4-.376-.598-.883-.598-1.52v-.486zm1.162.526c0 .315.087.569.263.763.175.193.407.29.694.29.282 0 .51-.097.683-.29.173-.194.26-.457.26-.79v-.5c0-.314-.088-.569-.263-.765a.886.886 0 0 0-.694-.294c-.287 0-.516.1-.687.298-.17.198-.256.459-.256.782v.506zm3.623 5.073c0-.611.198-1.106.594-1.484.397-.378.903-.567 1.518-.567.62 0 1.127.189 1.521.567.394.378.591.889.591 1.531v.486c0 .592-.19 1.081-.57 1.466-.381.385-.89.578-1.528.578s-1.152-.19-1.542-.571c-.39-.38-.584-.883-.584-1.507v-.5zm1.162.533c0 .31.09.564.27.762.18.198.411.297.694.297.291 0 .52-.094.687-.283.166-.19.25-.455.25-.797v-.512c0-.32-.09-.575-.267-.766a.891.891 0 0 0-.684-.287.888.888 0 0 0-.687.287c-.175.191-.263.456-.263.793v.506zm-3.487 1.162l-.854-.492 4.86-7.78.855.493-4.86 7.779z"/>
        </g>
        <g>
            <path fill="#FFF" d="M288.375 155.716c-.01-.082-.287-1.945-1.597-3.016 1.31-1.06 1.586-2.915 1.597-3.002l.052-.381-.358-.147a5.797 5.797 0 0 0-2-.376c-.455 0-.867.085-1.253.213-.296-1.608-1.74-2.728-1.808-2.78l-.302-.227-.3.228c-.064.048-1.4 1.088-1.767 2.599a3.968 3.968 0 0 0-1.264-.2c-1.08 0-1.98.366-2.02.382l-.355.146.051.382c.011.083.288 1.947 1.597 3.017-1.31 1.059-1.586 2.914-1.597 3l-.05.383.355.146c.04.016.932.377 2.003.377a3.92 3.92 0 0 0 1.251-.213c.297 1.608 1.74 2.727 1.808 2.779l.302.228.301-.228c.063-.048 1.4-1.088 1.767-2.6.386.129.806.2 1.263.2a5.832 5.832 0 0 0 2.02-.381l.356-.147-.052-.382z"/>
            <path fill="#FF64A4" d="M283.91 151.787c.797-.406 1.587-.782 1.587-.782s-1.079.837-2.059 1.361a6.27 6.27 0 0 1-.392.388c.643.18 1.996.432 3.08-.192 1.476-.85 1.754-2.93 1.754-2.93s-1.759-.722-3.202-.059l.001.017c0 .384-.092 1.23-.77 2.197M286.319 152.96l-.016.01c-.592.342-1.246.453-1.846.453-.162 0-.321-.008-.473-.023.76.493 1.494.997 1.494.997s-1.283-.52-2.237-1.113a5.676 5.676 0 0 1-.336-.084l-.191-.053c.168.653.628 1.956 1.718 2.584 1.49.86 3.449.051 3.449.051s-.255-1.898-1.562-2.822"/>
            <path fill="#FF64A4" d="M282.836 154.16a76.737 76.737 0 0 1-.116 1.754s-.19-1.343-.154-2.44a5.47 5.47 0 0 1-.093-.322l-.05-.192c-.48.463-1.377 1.49-1.377 2.721 0 1.681 1.674 2.946 1.674 2.946s1.512-1.146 1.66-2.705l-.016-.008c-.75-.426-1.228-1.116-1.528-1.754"/>
            <path fill="#FF64A4" d="M281.532 153.461c-.802.408-1.601.787-1.601.787s1.086-.842 2.07-1.366a7.17 7.17 0 0 1 .235-.243l.145-.14c-.647-.18-1.996-.43-3.078.192-1.48.851-1.756 2.93-1.756 2.93s1.76.722 3.205.06v-.019c0-.86.368-1.62.78-2.2M282.59 151.093c.047-.885.116-1.754.116-1.754s.19 1.343.154 2.441c.037.115.068.223.093.32l.051.193c.481-.463 1.376-1.49 1.376-2.72 0-1.683-1.674-2.947-1.674-2.947s-1.512 1.145-1.66 2.705l.017.008c.75.425 1.227 1.116 1.527 1.754"/>
            <path fill="#FF64A4" d="M279.108 152.294a.086.086 0 0 0 .016-.01c.753-.434 1.604-.496 2.319-.431a80.981 80.981 0 0 1-1.494-.996s1.283.52 2.237 1.113c.12.027.233.054.33.082l.197.055c-.168-.654-.628-1.956-1.718-2.584-1.49-.86-3.45-.052-3.45-.052s.256 1.899 1.563 2.823M272.858 135.265h1.012c.51-.005.915-.137 1.213-.397.299-.26.448-.636.448-1.128 0-.474-.124-.842-.372-1.104-.249-.262-.628-.393-1.139-.393-.446 0-.813.129-1.1.386-.287.258-.43.594-.43 1.009h-1.662c0-.51.136-.976.407-1.395.271-.42.65-.746 1.135-.98a3.696 3.696 0 0 1 1.63-.353c.993 0 1.774.25 2.341.749.568.499.851 1.193.851 2.081 0 .447-.142.867-.427 1.261a2.68 2.68 0 0 1-1.104.893c.547.186.963.48 1.248.881.284.401.427.88.427 1.436 0 .893-.307 1.604-.92 2.133-.612.528-1.418.793-2.416.793-.957 0-1.74-.255-2.352-.766-.61-.51-.916-1.19-.916-2.037h1.662c0 .437.146.793.44 1.066.294.274.69.41 1.186.41.515 0 .921-.136 1.217-.41.296-.273.445-.67.445-1.19 0-.523-.155-.926-.465-1.209-.31-.283-.77-.424-1.381-.424h-.978v-1.312zm10.886 1.572c-.556.588-1.205.882-1.948.882-.875 0-1.572-.307-2.092-.92s-.779-1.418-.779-2.416c0-.656.132-1.251.397-1.784.264-.534.64-.948 1.128-1.245.487-.296 1.052-.444 1.695-.444 1.002 0 1.798.374 2.386 1.121.587.748.881 1.748.881 3.001v.465c0 1.796-.405 3.165-1.216 4.108-.812.944-2.022 1.422-3.63 1.436h-.198v-1.374h.239c.98-.014 1.732-.25 2.256-.708.524-.458.818-1.165.881-2.122zm-1.6-.417c.334 0 .646-.096.937-.287.292-.192.518-.456.677-.793v-.65c0-.733-.15-1.323-.451-1.77-.3-.447-.69-.67-1.169-.67-.479 0-.86.197-1.145.591-.285.395-.427.892-.427 1.494 0 .624.143 1.128.43 1.51.288.384.67.575 1.149.575zm4.92-3.46c0-.6.193-1.094.58-1.479.388-.385.896-.578 1.525-.578.638 0 1.15.193 1.534.578.385.385.578.89.578 1.514v.492c0 .597-.193 1.087-.578 1.47-.385.383-.892.574-1.52.574-.616 0-1.123-.188-1.522-.564-.398-.376-.598-.883-.598-1.52v-.486zm1.161.527c0 .315.088.569.263.763.176.193.407.29.694.29.283 0 .51-.097.684-.29.173-.194.26-.457.26-.79v-.5c0-.314-.088-.569-.264-.765a.886.886 0 0 0-.693-.294c-.287 0-.516.1-.687.298-.171.198-.257.459-.257.782v.506zm3.623 5.073c0-.611.199-1.106.595-1.484.397-.378.902-.567 1.518-.567.62 0 1.126.189 1.52.567.395.378.592.889.592 1.531v.486c0 .592-.19 1.081-.57 1.466-.381.385-.89.578-1.529.578-.638 0-1.152-.19-1.541-.571-.39-.38-.585-.883-.585-1.507v-.5zm1.162.533c0 .31.09.564.27.762.18.198.412.297.694.297.292 0 .521-.094.687-.283.167-.19.25-.455.25-.797v-.512c0-.32-.089-.575-.267-.766a.891.891 0 0 0-.683-.287.888.888 0 0 0-.687.287c-.176.191-.264.456-.264.793v.506zm-3.486 1.162l-.854-.492 4.86-7.78.854.493-4.86 7.779z"/>
        </g>
        <g>
            <path fill="#FFF" d="M349.375 128.716c-.01-.082-.287-1.945-1.597-3.016 1.31-1.06 1.586-2.915 1.597-3.002l.052-.381-.358-.147a5.797 5.797 0 0 0-2-.376c-.455 0-.867.085-1.253.213-.296-1.608-1.74-2.728-1.808-2.78l-.302-.227-.3.228c-.064.048-1.4 1.088-1.767 2.599a3.968 3.968 0 0 0-1.264-.2c-1.08 0-1.98.366-2.02.382l-.355.146.051.382c.011.083.288 1.947 1.597 3.017-1.31 1.059-1.586 2.914-1.597 3l-.05.383.355.146c.04.016.932.377 2.003.377a3.92 3.92 0 0 0 1.251-.213c.297 1.608 1.74 2.727 1.808 2.779l.302.228.301-.228c.063-.048 1.4-1.088 1.767-2.6.386.129.806.2 1.263.2a5.832 5.832 0 0 0 2.02-.381l.356-.147-.052-.382z"/>
            <path fill="#FF64A4" d="M344.91 124.787c.797-.406 1.587-.782 1.587-.782s-1.079.837-2.059 1.361a6.27 6.27 0 0 1-.392.388c.643.18 1.996.432 3.08-.192 1.476-.85 1.754-2.93 1.754-2.93s-1.759-.722-3.202-.059l.001.017c0 .384-.092 1.23-.77 2.197M347.319 125.96l-.016.01c-.592.342-1.246.453-1.846.453-.162 0-.321-.008-.473-.023.76.493 1.494.997 1.494.997s-1.283-.52-2.237-1.113a5.676 5.676 0 0 1-.336-.084l-.191-.053c.168.653.628 1.956 1.718 2.584 1.49.86 3.449.051 3.449.051s-.255-1.898-1.562-2.822"/>
            <path fill="#FF64A4" d="M343.836 127.16a76.737 76.737 0 0 1-.116 1.754s-.19-1.343-.154-2.44a5.47 5.47 0 0 1-.093-.322l-.05-.192c-.48.463-1.377 1.49-1.377 2.721 0 1.681 1.674 2.946 1.674 2.946s1.512-1.146 1.66-2.705l-.016-.008c-.75-.426-1.228-1.116-1.528-1.754"/>
            <path fill="#FF64A4" d="M342.532 126.461c-.802.408-1.601.787-1.601.787s1.086-.842 2.07-1.366a7.17 7.17 0 0 1 .235-.243l.145-.14c-.647-.18-1.996-.43-3.078.192-1.48.851-1.756 2.93-1.756 2.93s1.76.722 3.205.06v-.019c0-.86.368-1.62.78-2.2M343.59 124.093c.047-.885.116-1.754.116-1.754s.19 1.343.154 2.441c.037.115.068.223.093.32l.051.193c.481-.463 1.376-1.49 1.376-2.72 0-1.683-1.674-2.947-1.674-2.947s-1.512 1.145-1.66 2.705l.017.008c.75.425 1.227 1.116 1.527 1.754"/>
            <path fill="#FF64A4" d="M340.108 125.294a.086.086 0 0 0 .016-.01c.753-.434 1.604-.496 2.319-.431a80.981 80.981 0 0 1-1.494-.996s1.283.52 2.237 1.113c.12.027.233.054.33.082l.197.055c-.168-.654-.628-1.956-1.718-2.584-1.49-.86-3.45-.052-3.45-.052s.256 1.899 1.563 2.823M332.387 114h-1.654v-7.991l-2.44.834v-1.402l3.882-1.428h.212V114zm8.097 0h-1.654v-7.991l-2.44.834v-1.402l3.882-1.428h.212V114zm5.52-5.735h1.012c.51-.005.914-.137 1.213-.397.299-.26.448-.636.448-1.128 0-.474-.124-.842-.373-1.104-.248-.262-.628-.393-1.138-.393-.447 0-.813.129-1.1.386-.288.258-.431.594-.431 1.009h-1.661c0-.51.135-.976.406-1.395.272-.42.65-.746 1.135-.98a3.696 3.696 0 0 1 1.63-.353c.994 0 1.774.25 2.342.749.567.499.85 1.193.85 2.081 0 .447-.142.867-.426 1.261a2.68 2.68 0 0 1-1.104.893c.547.186.962.48 1.247.881.285.401.427.88.427 1.436 0 .893-.306 1.604-.919 2.133-.613.528-1.418.793-2.416.793-.958 0-1.741-.255-2.352-.766-.61-.51-.916-1.19-.916-2.037h1.661c0 .437.147.793.441 1.066.294.274.69.41 1.186.41.515 0 .92-.136 1.217-.41.296-.273.444-.67.444-1.19 0-.523-.155-.926-.465-1.209-.31-.283-.77-.424-1.38-.424h-.978v-1.312zm6.108-2.304c0-.602.193-1.095.58-1.48.388-.385.896-.578 1.525-.578.638 0 1.15.193 1.535.578.385.385.577.89.577 1.514v.492c0 .597-.192 1.087-.577 1.47-.385.383-.892.574-1.521.574-.615 0-1.122-.188-1.521-.564-.399-.376-.598-.883-.598-1.52v-.486zm1.162.526c0 .315.088.569.263.763.175.193.407.29.694.29.282 0 .51-.097.683-.29.174-.194.26-.457.26-.79v-.5c0-.314-.088-.569-.263-.765a.886.886 0 0 0-.694-.294c-.287 0-.516.1-.687.298-.17.198-.256.459-.256.782v.506zm3.623 5.073c0-.611.198-1.106.595-1.484.396-.378.902-.567 1.517-.567.62 0 1.127.189 1.521.567.394.378.591.889.591 1.531v.486c0 .592-.19 1.081-.57 1.466-.38.385-.89.578-1.528.578s-1.152-.19-1.542-.571c-.39-.38-.584-.883-.584-1.507v-.5zm1.162.533c0 .31.09.564.27.762.18.198.411.297.694.297.291 0 .52-.094.687-.283.166-.19.25-.455.25-.797v-.512c0-.32-.09-.575-.267-.766a.891.891 0 0 0-.684-.287.888.888 0 0 0-.687.287c-.175.191-.263.456-.263.793v.506zm-3.486 1.162l-.855-.492 4.86-7.78.855.493-4.86 7.779z"/>
        </g>
        <g>
            <path fill="#FFF" d="M411.375 35.716c-.01-.082-.287-1.945-1.597-3.016 1.31-1.06 1.586-2.915 1.597-3.002l.052-.381-.358-.147a5.797 5.797 0 0 0-2-.376c-.455 0-.867.085-1.253.213-.296-1.608-1.74-2.728-1.808-2.78l-.302-.227-.3.228c-.064.048-1.4 1.088-1.767 2.599a3.968 3.968 0 0 0-1.264-.2c-1.08 0-1.98.366-2.02.382l-.355.146.051.382c.011.083.288 1.947 1.597 3.017-1.31 1.059-1.586 2.914-1.597 3l-.05.383.355.146c.04.016.932.377 2.003.377a3.92 3.92 0 0 0 1.251-.213c.297 1.608 1.74 2.727 1.808 2.779l.302.228.301-.228c.063-.048 1.4-1.088 1.767-2.6.386.129.806.2 1.263.2a5.832 5.832 0 0 0 2.02-.381l.356-.147-.052-.382z"/>
            <path fill="#FF64A4" d="M406.91 31.787c.797-.406 1.587-.782 1.587-.782s-1.079.837-2.059 1.361a6.27 6.27 0 0 1-.392.388c.643.18 1.996.432 3.08-.192 1.476-.85 1.754-2.93 1.754-2.93s-1.759-.722-3.202-.059l.001.017c0 .384-.092 1.23-.77 2.197M409.319 32.96l-.016.01c-.592.342-1.246.453-1.846.453-.162 0-.321-.008-.473-.023.76.493 1.494.997 1.494.997s-1.283-.52-2.237-1.113a5.676 5.676 0 0 1-.336-.084l-.191-.053c.168.653.628 1.956 1.718 2.584 1.49.86 3.449.051 3.449.051s-.255-1.898-1.562-2.822"/>
            <path fill="#FF64A4" d="M405.836 34.16a76.737 76.737 0 0 1-.116 1.754s-.19-1.343-.154-2.44a5.47 5.47 0 0 1-.093-.322l-.05-.192c-.48.463-1.377 1.49-1.377 2.721 0 1.681 1.674 2.946 1.674 2.946s1.512-1.146 1.66-2.705l-.016-.008c-.75-.426-1.228-1.116-1.528-1.754"/>
            <path fill="#FF64A4" d="M404.532 33.461c-.802.408-1.601.787-1.601.787s1.086-.842 2.07-1.366a7.17 7.17 0 0 1 .235-.243l.145-.14c-.647-.18-1.996-.43-3.078.192-1.48.851-1.756 2.93-1.756 2.93s1.76.722 3.205.06v-.019c0-.86.368-1.62.78-2.2M405.59 31.093c.047-.885.116-1.754.116-1.754s.19 1.343.154 2.441c.037.115.068.223.093.32l.051.193c.481-.463 1.376-1.49 1.376-2.72 0-1.683-1.674-2.947-1.674-2.947s-1.512 1.145-1.66 2.705l.017.008c.75.425 1.227 1.116 1.527 1.754"/>
            <path fill="#FF64A4" d="M402.108 32.294a.086.086 0 0 0 .016-.01c.753-.434 1.604-.496 2.319-.431a80.981 80.981 0 0 1-1.494-.996s1.283.52 2.237 1.113c.12.027.233.054.33.082l.197.055c-.168-.654-.628-1.956-1.718-2.584-1.49-.86-3.45-.052-3.45-.052s.256 1.899 1.563 2.823M391.81 15.265h1.012c.51-.005.914-.137 1.213-.397.298-.26.448-.636.448-1.128 0-.474-.124-.842-.373-1.104-.248-.262-.628-.393-1.138-.393-.447 0-.814.129-1.1.386-.288.258-.431.594-.431 1.009h-1.661c0-.51.135-.976.406-1.395.271-.42.65-.746 1.135-.98a3.696 3.696 0 0 1 1.63-.353c.994 0 1.774.25 2.342.749.567.499.85 1.193.85 2.081 0 .447-.142.867-.426 1.261a2.68 2.68 0 0 1-1.104.893c.546.186.962.48 1.247.881.285.401.427.88.427 1.436 0 .893-.306 1.604-.92 2.133-.612.528-1.418.793-2.416.793-.957 0-1.74-.255-2.351-.766-.61-.51-.916-1.19-.916-2.037h1.661c0 .437.147.793.44 1.066.295.274.69.41 1.187.41.515 0 .92-.136 1.217-.41.296-.273.444-.67.444-1.19 0-.523-.155-.926-.465-1.209-.31-.283-.77-.424-1.38-.424h-.978v-1.312zm12.8-3.295L400.631 21h-1.743l3.972-8.62h-5.147v-1.333h6.897v.923zm7.092 5.482h1.237v1.333h-1.237V21h-1.661v-2.215h-4.3l-.048-1.012 4.293-6.726h1.716v6.405zm-4.265 0h2.604v-4.156l-.123.219-2.481 3.937zm6.675-4.491c0-.602.193-1.095.58-1.48.388-.385.896-.578 1.525-.578.638 0 1.15.193 1.535.578.385.385.577.89.577 1.514v.492c0 .597-.192 1.087-.577 1.47-.385.383-.892.574-1.521.574-.615 0-1.122-.188-1.521-.564-.399-.376-.598-.883-.598-1.52v-.486zm1.162.526c0 .315.088.569.263.763.175.193.407.29.694.29.282 0 .51-.097.683-.29.174-.194.26-.457.26-.79v-.5c0-.314-.088-.569-.263-.765a.886.886 0 0 0-.694-.294c-.287 0-.516.1-.687.298-.17.198-.256.459-.256.782v.506zm3.623 5.073c0-.611.198-1.106.595-1.484.396-.378.902-.567 1.517-.567.62 0 1.127.189 1.521.567.394.378.591.889.591 1.531v.486c0 .592-.19 1.081-.57 1.466-.38.385-.89.578-1.528.578s-1.152-.19-1.542-.571c-.39-.38-.584-.883-.584-1.507v-.5zm1.162.533c0 .31.09.564.27.762.18.198.411.297.694.297.291 0 .52-.094.687-.283.166-.19.25-.455.25-.797v-.512c0-.32-.09-.575-.267-.766a.891.891 0 0 0-.684-.287.888.888 0 0 0-.687.287c-.175.191-.263.456-.263.793v.506zm-3.486 1.162l-.855-.492 4.86-7.78.855.493-4.86 7.779z"/>
        </g>
        <g>
            <path fill="#FFF" d="M472.375 25.716c-.01-.082-.287-1.945-1.597-3.016 1.31-1.06 1.586-2.915 1.597-3.002l.052-.381-.358-.147a5.797 5.797 0 0 0-2-.376c-.455 0-.867.085-1.253.213-.296-1.608-1.74-2.728-1.808-2.78l-.302-.227-.3.228c-.064.048-1.4 1.088-1.767 2.599a3.968 3.968 0 0 0-1.264-.2c-1.08 0-1.98.366-2.02.382l-.355.146.051.382c.011.083.288 1.947 1.597 3.017-1.31 1.059-1.586 2.914-1.597 3l-.05.383.355.146c.04.016.932.377 2.003.377a3.92 3.92 0 0 0 1.251-.213c.297 1.608 1.74 2.727 1.808 2.779l.302.228.301-.228c.063-.048 1.4-1.088 1.767-2.6.386.129.806.2 1.263.2a5.832 5.832 0 0 0 2.02-.381l.356-.147-.052-.382z"/>
            <path fill="#FF64A4" d="M467.91 21.787c.797-.406 1.587-.782 1.587-.782s-1.079.837-2.059 1.361a6.27 6.27 0 0 1-.392.388c.643.18 1.996.432 3.08-.192 1.476-.85 1.754-2.93 1.754-2.93s-1.759-.722-3.202-.059l.001.017c0 .384-.092 1.23-.77 2.197M470.319 22.96l-.016.01c-.592.342-1.246.453-1.846.453-.162 0-.321-.008-.473-.023.76.493 1.494.997 1.494.997s-1.283-.52-2.237-1.113a5.676 5.676 0 0 1-.336-.084l-.191-.053c.168.653.628 1.956 1.718 2.584 1.49.86 3.449.051 3.449.051s-.255-1.898-1.562-2.822"/>
            <path fill="#FF64A4" d="M466.836 24.16a76.737 76.737 0 0 1-.116 1.754s-.19-1.343-.154-2.44a5.47 5.47 0 0 1-.093-.322l-.05-.192c-.48.463-1.377 1.49-1.377 2.721 0 1.681 1.674 2.946 1.674 2.946s1.512-1.146 1.66-2.705l-.016-.008c-.75-.426-1.228-1.116-1.528-1.754"/>
            <path fill="#FF64A4" d="M465.532 23.461c-.802.408-1.601.787-1.601.787s1.086-.842 2.07-1.366a7.17 7.17 0 0 1 .235-.243l.145-.14c-.647-.18-1.996-.43-3.078.192-1.48.851-1.756 2.93-1.756 2.93s1.76.722 3.205.06v-.019c0-.86.368-1.62.78-2.2M466.59 21.093c.047-.885.116-1.754.116-1.754s.19 1.343.154 2.441c.037.115.068.223.093.32l.051.193c.481-.463 1.376-1.49 1.376-2.72 0-1.683-1.674-2.947-1.674-2.947s-1.512 1.145-1.66 2.705l.017.008c.75.425 1.227 1.116 1.527 1.754"/>
            <path fill="#FF64A4" d="M463.108 22.294a.086.086 0 0 0 .016-.01c.753-.434 1.604-.496 2.319-.431a80.981 80.981 0 0 1-1.494-.996s1.283.52 2.237 1.113c.12.027.233.054.33.082l.197.055c-.168-.654-.628-1.956-1.718-2.584-1.49-.86-3.45-.052-3.45-.052s.256 1.899 1.563 2.823M452.81 5.265h1.012c.51-.005.914-.137 1.213-.397.298-.26.448-.636.448-1.128 0-.474-.124-.842-.373-1.104-.248-.262-.628-.393-1.138-.393-.447 0-.814.129-1.1.386-.288.258-.431.594-.431 1.009h-1.661c0-.51.135-.976.406-1.395.271-.42.65-.746 1.135-.98a3.696 3.696 0 0 1 1.63-.353c.994 0 1.774.25 2.342.749.567.499.85 1.193.85 2.081 0 .447-.142.867-.426 1.261a2.68 2.68 0 0 1-1.104.893c.546.186.962.48 1.247.881.285.401.427.88.427 1.436 0 .893-.306 1.604-.92 2.133-.612.528-1.418.793-2.416.793-.957 0-1.74-.255-2.351-.766-.61-.51-.916-1.19-.916-2.037h1.661c0 .437.147.793.44 1.066.295.274.69.41 1.187.41.515 0 .92-.136 1.217-.41.296-.273.444-.67.444-1.19 0-.523-.155-.926-.465-1.209-.31-.283-.77-.424-1.38-.424h-.978V5.265zm12.445-1.593c0 .488-.126.922-.376 1.302-.251.38-.593.68-1.026.899.52.242.92.572 1.2.991.28.42.42.893.42 1.422 0 .875-.296 1.569-.888 2.082-.593.512-1.381.769-2.366.769-.989 0-1.78-.258-2.375-.773s-.892-1.207-.892-2.078c0-.533.141-1.012.424-1.435.282-.424.679-.75 1.19-.978a2.593 2.593 0 0 1-1.016-.899 2.33 2.33 0 0 1-.373-1.302c0-.848.274-1.52.82-2.017.548-.496 1.286-.745 2.216-.745.934 0 1.674.249 2.221.745.547.497.82 1.17.82 2.017zm-1.443 4.532c0-.492-.147-.89-.44-1.193-.295-.303-.683-.454-1.166-.454-.483 0-.87.15-1.159.45-.29.302-.434.7-.434 1.197 0 .488.142.877.427 1.169.285.292.678.438 1.18.438.5 0 .891-.142 1.172-.424.28-.283.42-.677.42-1.183zm-.212-4.47c0-.434-.125-.79-.376-1.07-.25-.28-.588-.42-1.011-.42-.424 0-.76.132-1.005.4-.246.266-.37.63-.37 1.09 0 .455.125.817.373 1.086.248.27.585.404 1.008.404.424 0 .76-.135 1.009-.404.248-.269.372-.63.372-1.087zm8.651-2.735v1.374h-.205c-.93.014-1.673.269-2.229.766-.556.496-.886 1.2-.99 2.112.532-.56 1.214-.84 2.043-.84.88 0 1.574.309 2.082.929.508.62.762 1.42.762 2.4 0 1.011-.297 1.83-.892 2.457-.595.626-1.375.94-2.342.94-.993 0-1.799-.367-2.416-1.1-.618-.735-.926-1.696-.926-2.886v-.567c0-1.745.425-3.113 1.275-4.102.85-.989 2.072-1.483 3.667-1.483h.171zm-1.784 4.751c-.365 0-.699.103-1.002.308a1.798 1.798 0 0 0-.666.82v.506c0 .738.155 1.325.465 1.76.31.435.71.653 1.203.653.492 0 .882-.185 1.169-.554.287-.369.43-.854.43-1.456 0-.601-.145-1.091-.437-1.47a1.395 1.395 0 0 0-1.162-.567zm4.645-2.79c0-.6.193-1.094.58-1.479.388-.385.896-.578 1.525-.578.638 0 1.15.193 1.535.578.385.385.577.89.577 1.514v.492c0 .597-.192 1.087-.577 1.47-.385.383-.892.574-1.521.574-.615 0-1.122-.188-1.521-.564-.399-.376-.598-.883-.598-1.52V2.96zm1.162.527c0 .315.088.569.263.763.175.193.407.29.694.29.282 0 .51-.097.683-.29.174-.194.26-.457.26-.79v-.5c0-.314-.088-.569-.263-.765a.886.886 0 0 0-.694-.294c-.287 0-.516.1-.687.298-.17.198-.256.459-.256.782v.506zm3.623 5.073c0-.611.198-1.106.595-1.484.396-.378.902-.567 1.517-.567.62 0 1.127.189 1.521.567.394.378.591.889.591 1.531v.486c0 .592-.19 1.081-.57 1.466-.38.385-.89.578-1.528.578s-1.152-.19-1.542-.571c-.39-.38-.584-.883-.584-1.507v-.5zm1.162.533c0 .31.09.564.27.762.18.198.411.297.694.297.291 0 .52-.094.687-.283.166-.19.25-.455.25-.797V8.56c0-.32-.09-.575-.267-.766a.891.891 0 0 0-.684-.287.888.888 0 0 0-.687.287c-.175.191-.263.456-.263.793v.506zm-3.486 1.162l-.855-.492 4.86-7.78.855.493-4.86 7.779z"/>
        </g>
    </g>
</svg>
